<svg width="46" height="65" viewBox="0 0 46 65" fill="none" xmlns="http://www.w3.org/2000/svg">
<path d="M4.16571 59.7793L0 12.774H45.7746L41.6044 59.7719L22.8592 65L4.16571 59.7793Z" fill="#E53D20"/>
<path d="M22.8873 61.0039L38.0343 56.7793L41.5981 16.6174H22.8873V61.0039Z" fill="#F15123"/>
<path d="M22.8873 34.0511H15.3044L14.7806 28.1476H22.8873V22.3825H22.8674H8.51782L8.65504 23.9292L10.0635 39.8159H22.8873V34.0511Z" fill="#EDEDED"/>
<path d="M22.8873 49.0234L22.8622 49.0302L16.4801 47.2965L16.072 42.6987H12.9708H10.3195L11.1224 51.7506L22.8609 55.0288L22.8873 55.0215V49.0234Z" fill="#EDEDED"/>
<path d="M4.25879 -0.000203133H7.17102V2.89431H9.8349V-0.000203133H12.7473V8.76514H9.83502V5.83004H7.17114V8.76514H4.259V-0.000203133H4.25879Z" fill="white"/>
<path d="M16.5768 2.90653H14.0131V-0.000203133H22.0541V2.90653H19.4892V8.76514H16.577V2.90653H16.5768Z" fill="white"/>
<path d="M23.3303 -0.000203133H26.3669L28.2348 3.07965L30.1009 -0.000203133H33.1386V8.76514H30.2384V4.42054L28.2348 7.53714H28.1848L26.1799 4.42054V8.76514H23.3303V-0.000203133Z" fill="white"/>
<path d="M34.5879 -0.000203133H37.501V5.86786H41.5963V8.76514H34.5879V-0.000203133Z" fill="white"/>
<path d="M22.8674 34.0511V39.8159H29.9239L29.2588 47.2927L22.8674 49.0282V55.0259L34.6153 51.7504L34.7014 50.7765L36.0481 35.5991L36.1879 34.0511H34.6437H22.8674Z" fill="white"/>
<path d="M22.8674 22.3824V28.1475H36.6909H36.7093L36.8243 26.8516L37.0853 23.9291L37.2224 22.3824H22.8674Z" fill="white"/>
</svg>
