<svg width="162" height="37" viewBox="0 0 162 37" fill="none" xmlns="http://www.w3.org/2000/svg">
<path fill-rule="evenodd" clip-rule="evenodd" d="M154.373 2.70654L161.139 2.74372C161.139 2.74372 148.56 19.7888 147.533 21.178C147.199 21.6279 146.692 22.113 146.435 22.7144C145.786 24.2262 145.119 27.5424 145.119 27.5424L138.928 27.5731C138.928 27.5731 139.891 24.1166 139.851 22.2754C139.816 20.6668 138.995 19.0605 138.535 17.4473C138.069 15.8146 137.437 12.6192 137.437 12.6192H143.802L144.68 16.1306L154.373 2.70654Z" fill="#FFFDFC"/>
<path fill-rule="evenodd" clip-rule="evenodd" d="M141.561 6.30137C142.81 7.05421 143.576 11.2063 143.576 11.2063C143.576 11.2063 137.043 11.3026 133.487 11.3026H130.415L126.684 27.5425H120.978C120.978 27.5425 124.529 9.89393 125.368 6.69421C125.64 5.65852 127.229 5.83604 129.912 5.83604H134.198C136.966 5.83604 140.201 5.48286 141.561 6.30137Z" fill="#FFFDFC"/>
<path fill-rule="evenodd" clip-rule="evenodd" d="M114.998 14.2103C114.998 14.2103 115.176 13.1678 114.395 11.9608C113.728 10.9316 113.111 10.6924 111.356 10.6376C106.398 10.4817 106.494 14.1555 106.494 14.1555L114.998 14.2103ZM120.375 10.0034C121.102 12.6238 119.717 18.7815 119.717 18.7815C119.717 18.7815 112.485 18.6607 108.525 18.7815C107.293 18.819 105.819 18.6477 105.452 19.2205C104.936 20.0236 105.641 21.2594 106.238 21.7814C106.925 22.3828 108.263 22.4509 108.744 22.5123C111.959 22.9206 118.688 22.6176 118.688 22.6176L117.522 27.779C117.522 27.779 108.013 28.2555 103.257 27.1207C102.318 26.897 101.438 26.445 100.843 25.804C100.681 25.6286 100.54 25.3895 100.387 25.1831C100.264 25.0183 99.9066 24.4765 99.7461 24.0483C98.6599 21.1537 99.8734 15.6082 101.063 12.6368C101.201 12.2923 101.374 11.8557 101.557 11.4846C101.785 11.0217 101.978 10.4994 102.16 10.2227C102.283 10.0319 102.435 9.9089 102.562 9.7289C102.709 9.51606 102.88 9.30972 103.038 9.1257C103.477 8.61637 103.975 8.25637 104.574 7.80901C106.556 6.32533 110.142 5.17315 114.45 5.61431C116.072 5.78099 118.521 6.36034 119.717 8.02835C120.037 8.47386 120.195 9.35805 120.375 10.0034Z" fill="#FFFDFC"/>
<path fill-rule="evenodd" clip-rule="evenodd" d="M94.2048 5.81604L99.7373 5.7832C99.7373 5.7832 96.6541 20.4099 95.0828 27.5424H88.7183C84.2701 27.5424 80.3089 28.0932 78.6235 24.9087C76.9886 21.8168 78.5488 16.7319 79.2818 13.2775C79.7998 10.8328 80.8907 5.83587 80.8907 5.83587L86.6228 5.7832C86.6228 5.7832 85.0031 13.5628 84.3293 17.4472C84.0879 18.8386 83.5901 20.1488 84.1099 21.178C84.6037 22.157 85.2949 22.227 87.4016 22.2753C88.069 22.2908 90.2547 22.2753 90.2547 22.2753L94.2048 5.81604Z" fill="#FFFDFC"/>
<path fill-rule="evenodd" clip-rule="evenodd" d="M68.3091 16.3499C68.8884 14.2915 69.7332 12.0596 69.6257 10.2051C69.5096 8.22139 67.8462 6.4152 66.773 6.03568C63.5405 4.89434 60.5142 6.48986 59.3116 7.79106C57.7554 9.47674 57.2287 11.4453 56.6779 14.1555C56.2677 16.1677 55.9318 18.2921 56.6779 19.8612C57.9989 22.6353 62.1181 22.0296 66.5534 22.0559C67.2117 20.2916 67.756 18.3097 68.3091 16.3499ZM75.9902 8.23006C76.6222 12.8255 74.1973 17.8974 72.5271 22.3081C74.2301 22.4618 75.7225 22.2843 75.83 22.4113C75.9418 22.5761 74.6887 27.6762 74.2518 27.6892C72.9001 27.7245 68.4212 27.7617 66.5534 27.7617C60.4591 27.7617 54.7577 28.1589 51.8501 25.1283C50.6694 23.8971 49.8531 21.7858 49.6554 20.3002C49.3261 17.8202 49.7388 15.0902 50.3138 12.8388C50.8339 10.8064 51.501 8.88841 52.5085 7.13272C55.0693 2.66247 59.5244 -0.655588 66.9924 0.110262C68.4407 0.25959 70.5211 0.89377 71.8204 1.6463C71.9103 1.69928 72.2244 1.94929 72.2966 1.99328C74.0523 3.11046 75.6522 5.77668 75.9902 8.23006Z" fill="#FFFDFC"/>
<path fill-rule="evenodd" clip-rule="evenodd" d="M49.0256 5.84274C48.6569 7.5216 48.2882 9.42445 47.8997 11.0835H41.755C42.2312 9.24445 42.5955 7.41626 43.0717 5.81641C45.038 5.81641 46.8662 5.84274 49.0256 5.84274Z" fill="#FFFDFC"/>
<path fill-rule="evenodd" clip-rule="evenodd" d="M41.5356 12.6191H47.4607C46.6862 16.9075 45.1523 23.8246 43.9496 28.6394C43.1968 31.6526 42.6943 33.8516 40.6576 35.4425C40.4754 35.5853 40.3704 35.5175 40.2189 35.6622C39.8434 36.02 38.1075 36.4348 37.1465 36.5399C35.5838 36.709 33.8173 36.5618 31.8971 36.5225C32.3996 34.6856 32.9681 32.4801 33.4158 30.8341C38.0967 31.4004 38.2154 26.976 39.1215 22.7143C39.6461 20.2519 41.2351 13.6068 41.5356 12.6191Z" fill="#FFFDFC"/>
<path fill-rule="evenodd" clip-rule="evenodd" d="M27.7097 23.8121L27.5827 24.1411C25.4187 28.3545 21.5848 30.9399 16.116 31.0539C13.5595 31.1066 11.1235 30.4507 9.53227 29.7372C6.09803 28.1943 3.20967 25.3329 1.63212 22.2757C-0.630726 17.8932 -1.03875 11.7967 3.66633 7.24316C3.73883 7.24316 3.09566 8.23053 3.16816 8.23053L3.03866 8.65187C-0.351897 19.2669 10.094 28.3635 20.2483 27.3232C22.6886 27.0731 25.8007 25.7366 27.7097 23.8121Z" fill="#21609B"/>
<path fill-rule="evenodd" clip-rule="evenodd" d="M21.565 19.4226C24.1196 19.4402 26.788 18.2462 28.3681 16.5698C26.9857 20.079 22.983 22.3348 17.6149 21.6173C13.1205 21.0159 8.8389 16.493 8.39774 11.9611C8.07522 8.66287 9.22493 6.69434 11.1191 4.30664C10.4608 5.55548 10.2148 6.51868 10.1534 7.13303C9.43374 14.2676 15.8527 19.3854 21.565 19.4226Z" fill="#21609B"/>
<path fill-rule="evenodd" clip-rule="evenodd" d="M28.1116 10.561C27.7144 11.4718 25.4277 13.1922 24.418 13.4072C20.4196 14.2589 17.8587 12.3628 16.5176 10.2053C16.318 9.88281 15.9494 9.00295 15.8834 8.77895C15.3632 7.01025 15.6024 4.33504 17.1542 2.9502C16.6867 4.26689 16.6186 5.79642 16.8645 6.7906C17.0136 7.39194 17.4677 8.44126 17.9222 9.10147C18.7494 10.3041 19.2739 10.5963 20.3363 11.2348C20.8146 11.5223 21.328 11.7528 21.5498 11.8163C22.557 12.1125 24.6835 12.8938 28.1116 10.561Z" fill="#21609B"/>
</svg>
