<svg width="60" height="61" viewBox="0 0 60 61" fill="none" xmlns="http://www.w3.org/2000/svg">
<g clip-path="url(#clip0_469_653)">
<path d="M7.02391 7.71096C6.91281 4.51643 9.40141 1.5708 12.7656 1.5708H47.2375C50.6017 1.5708 53.0903 4.51643 52.9792 7.71096C52.8723 10.7794 53.0111 14.7544 54.0114 17.9953C55.015 21.2466 56.7072 23.3011 59.4789 23.5655V26.5594C56.7072 26.8233 55.015 28.8783 54.0114 32.1295C53.0111 35.3705 52.8723 39.3455 52.9792 42.4139C53.0903 45.6085 50.6017 48.5536 47.2375 48.5536H12.7656C9.40141 48.5536 6.91281 45.608 7.02391 42.4139C7.13078 39.3455 6.99203 35.3705 5.99125 32.1295C4.98812 28.8788 3.29125 26.8238 0.519531 26.5594V23.5655C3.29125 23.3016 4.98812 21.2466 5.99125 17.9953C6.99203 14.7544 7.13031 10.7794 7.02391 7.71096Z" fill="url(#paint0_linear_469_653)"/>
<g filter="url(#filter0_d_469_653)">
<path d="M31.4577 37.7222C36.9041 37.7222 40.1859 35.0555 40.1859 30.6572C40.1859 27.3324 37.8445 24.9253 34.3673 24.5442V24.4055C36.922 23.9902 38.9263 21.6178 38.9263 18.968C38.9263 15.1931 35.946 12.7341 31.4043 12.7341H21.1855V37.7222H31.4577ZM25.1596 15.9033H30.4466C33.3201 15.9033 34.9527 17.1844 34.9527 19.5052C34.9527 21.9811 33.0543 23.3667 29.6127 23.3667H25.1596V15.9033ZM25.1596 34.5534V26.3278H30.411C34.1718 26.3278 36.1232 27.713 36.1232 30.4144C36.1232 33.1158 34.2252 34.5534 30.6416 34.5534H25.1596Z" fill="url(#paint1_linear_469_653)"/>
<path d="M31.4577 37.7222C36.9041 37.7222 40.1859 35.0555 40.1859 30.6572C40.1859 27.3324 37.8445 24.9253 34.3673 24.5442V24.4055C36.922 23.9902 38.9263 21.6178 38.9263 18.968C38.9263 15.1931 35.946 12.7341 31.4043 12.7341H21.1855V37.7222H31.4577ZM25.1596 15.9033H30.4466C33.3201 15.9033 34.9527 17.1844 34.9527 19.5052C34.9527 21.9811 33.0543 23.3667 29.6127 23.3667H25.1596V15.9033ZM25.1596 34.5534V26.3278H30.411C34.1718 26.3278 36.1232 27.713 36.1232 30.4144C36.1232 33.1158 34.2252 34.5534 30.6416 34.5534H25.1596Z" fill="white"/>
</g>
<path d="M5.34375 57.5297V49.215H7.70953C8.42812 49.215 8.99859 49.3908 9.42 49.7428C9.84141 50.0944 10.0519 50.5524 10.0519 51.1167C10.0519 51.5888 9.92437 51.9985 9.66937 52.3463C9.41391 52.6941 9.06234 52.9416 8.61375 53.0883V53.1117C9.17438 53.1774 9.62297 53.3897 9.95906 53.7492C10.2952 54.105 10.4634 54.5686 10.4634 55.141C10.4634 55.8521 10.2084 56.4281 9.69844 56.8688C9.18797 57.3094 8.54438 57.5297 7.76719 57.5297H5.34375ZM6.31781 50.0963V52.7808H7.31531C7.84875 52.7808 8.26828 52.6533 8.57344 52.3983C8.87859 52.1391 9.03141 51.7753 9.03141 51.308C9.03141 50.5003 8.49984 50.0963 7.43672 50.0963H6.31781ZM6.31781 53.6564V56.6485H7.63969C8.21156 56.6485 8.65453 56.513 8.96766 56.2425C9.28453 55.9721 9.44297 55.6008 9.44297 55.1292C9.44297 54.1472 8.77406 53.6564 7.43672 53.6564H6.31781ZM14.505 57.6703C13.6275 57.6703 12.9258 57.3938 12.4003 56.8411C11.8786 56.2847 11.6175 55.5483 11.6175 54.6319C11.6175 53.6349 11.8898 52.8558 12.435 52.2952C12.9802 51.735 13.7166 51.4547 14.6442 51.4547C15.5292 51.4547 16.2192 51.7271 16.7142 52.2722C17.2125 52.8174 17.4619 53.573 17.4619 54.5391C17.4619 55.4864 17.1933 56.2458 16.6556 56.8182C16.1227 57.3863 15.4055 57.6703 14.505 57.6703ZM14.5744 52.2549C13.9636 52.2549 13.4808 52.4635 13.125 52.8811C12.7692 53.2946 12.5916 53.8664 12.5916 54.5972C12.5916 55.3008 12.7711 55.8558 13.1306 56.2613C13.4902 56.6677 13.9711 56.8707 14.5744 56.8707C15.1889 56.8707 15.6609 56.6714 15.9895 56.273C16.3219 55.875 16.4878 55.3088 16.4878 54.5742C16.4878 53.8322 16.3219 53.2599 15.9895 52.8577C15.6609 52.456 15.1889 52.2549 14.5744 52.2549ZM21.4631 57.6703C20.5856 57.6703 19.8839 57.3938 19.3584 56.8411C18.8367 56.2847 18.5756 55.5483 18.5756 54.6319C18.5756 53.6349 18.848 52.8558 19.3931 52.2952C19.9383 51.735 20.6747 51.4547 21.6023 51.4547C22.4873 51.4547 23.1773 51.7271 23.6723 52.2722C24.1711 52.8174 24.4205 53.573 24.4205 54.5391C24.4205 55.4864 24.1519 56.2458 23.6142 56.8182C23.0808 57.3863 22.3641 57.6703 21.4631 57.6703ZM21.5325 52.2549C20.9217 52.2549 20.4389 52.4635 20.0831 52.8811C19.7273 53.2946 19.5497 53.8664 19.5497 54.5972C19.5497 55.3008 19.7292 55.8558 20.0888 56.2613C20.4483 56.6677 20.9292 56.8707 21.5325 56.8707C22.147 56.8707 22.6191 56.6714 22.9477 56.273C23.28 55.875 23.4459 55.3088 23.4459 54.5742C23.4459 53.8322 23.28 53.2599 22.9477 52.8577C22.6191 52.456 22.1475 52.2549 21.5325 52.2549ZM28.6931 57.4735C28.4691 57.5972 28.1733 57.6591 27.8058 57.6591C26.7661 57.6591 26.2463 57.0792 26.2463 55.9196V52.4058H25.2258V51.5939H26.2463V50.1446L27.1973 49.8371V51.5939H28.6927V52.4058H27.1973V55.7513C27.1973 56.1492 27.2648 56.4338 27.4003 56.6039C27.5353 56.7741 27.7594 56.8589 28.0725 56.8589C28.312 56.8589 28.5192 56.7933 28.6931 56.6621V57.4735ZM29.6034 57.3141V56.2936C30.1214 56.6761 30.6914 56.8674 31.3139 56.8674C32.1488 56.8674 32.5664 56.5894 32.5664 56.033C32.5664 55.8741 32.5298 55.741 32.4563 55.6327C32.3812 55.515 32.2824 55.4142 32.1661 55.3369C32.0327 55.2447 31.8887 55.1689 31.7372 55.111C31.5625 55.0363 31.3866 54.9647 31.2094 54.8963C30.9725 54.8035 30.7403 54.699 30.5138 54.5831C30.3322 54.4861 30.1645 54.3652 30.015 54.2236C29.886 54.0918 29.7837 53.9363 29.7136 53.7657C29.648 53.5955 29.6152 53.3967 29.6152 53.1685C29.6152 52.8905 29.6789 52.6449 29.8064 52.4321C29.9334 52.2161 30.1078 52.0318 30.3164 51.893C30.5375 51.7422 30.7828 51.6302 31.0416 51.5621C31.3177 51.4883 31.6023 51.4513 31.8881 51.4519C32.4023 51.4519 32.8622 51.541 33.2681 51.7191V52.6814C32.8313 52.395 32.3287 52.2521 31.7602 52.2521C31.582 52.2521 31.4222 52.2732 31.2792 52.3158C31.1466 52.3499 31.0209 52.407 30.908 52.4846C30.81 52.5546 30.7288 52.6456 30.6703 52.7508C30.6155 52.8544 30.5876 52.9702 30.5892 53.0874C30.5892 53.2416 30.6164 53.371 30.6703 53.4755C30.728 53.58 30.8109 53.6728 30.9197 53.7539C31.0275 53.835 31.1592 53.9086 31.3139 53.9742C31.4686 54.0399 31.6444 54.1116 31.8417 54.1889C32.1042 54.2892 32.34 54.3938 32.5491 54.5021C32.7429 54.5963 32.9224 54.7173 33.0825 54.8616C33.2292 54.9928 33.3413 55.1456 33.4186 55.3196C33.4997 55.4935 33.5405 55.7002 33.5405 55.9397C33.5405 56.2336 33.4748 56.4886 33.3436 56.7052C33.2156 56.9217 33.0436 57.1013 32.827 57.2442C32.598 57.3927 32.3451 57.5007 32.0794 57.5635C31.7889 57.6342 31.491 57.6693 31.192 57.668C30.5813 57.668 30.052 57.5499 29.6034 57.3141ZM37.755 57.4735C37.5314 57.5972 37.2356 57.6591 36.8681 57.6591C35.8284 57.6591 35.3086 57.0792 35.3086 55.9196V52.4058H34.2881V51.5939H35.3086V50.1446L36.2597 49.8371V51.5939H37.755V52.4058H36.2597V55.7513C36.2597 56.1492 36.3272 56.4338 36.4627 56.6039C36.5977 56.7741 36.8217 56.8589 37.1348 56.8589C37.3744 56.8589 37.5816 56.7933 37.7555 56.6621L37.755 57.4735ZM42.1219 52.5563C41.9555 52.4288 41.7159 52.365 41.4028 52.365C40.9969 52.365 40.6566 52.5563 40.3823 52.9388C40.1119 53.3217 39.9764 53.8435 39.9764 54.5044V57.5311H39.0258V51.5939H39.9764V52.8174H39.9998C40.1353 52.3997 40.342 52.0753 40.62 51.8433C40.898 51.6075 41.2092 51.4894 41.5538 51.4894C41.8008 51.4894 41.9902 51.5166 42.1219 51.571V52.5563ZM47.4052 57.5297H46.4541V56.6016H46.4306C46.0177 57.3131 45.4087 57.6689 44.6053 57.6689C44.0137 57.6689 43.5497 57.5124 43.2131 57.1992C42.8808 56.8861 42.7148 56.4703 42.7148 55.9524C42.7148 54.8428 43.3678 54.1978 44.6742 54.0164L46.4545 53.7666C46.4545 52.7578 46.0467 52.2535 45.2311 52.2535C44.5162 52.2535 43.8708 52.4967 43.2947 52.9838V52.0097C43.8783 51.6389 44.5509 51.4533 45.3127 51.4533C46.7081 51.4533 47.4056 52.1916 47.4056 53.6682L47.4052 57.5297ZM46.4536 54.5264L45.022 54.7233C44.5814 54.7852 44.2486 54.8953 44.0245 55.0538C43.8005 55.2085 43.6884 55.485 43.6884 55.883C43.6884 56.1732 43.7911 56.4108 43.9959 56.5964C44.2045 56.7778 44.4811 56.8683 44.8252 56.8683C45.2967 56.8683 45.6853 56.7042 45.9905 56.3761C46.2998 56.0438 46.4545 55.6242 46.4545 55.1175L46.4536 54.5264ZM50.1708 56.6719H50.1473V60.2611H49.1967V51.5925H50.1478V52.636H50.1708C50.6386 51.8475 51.323 51.4533 52.2234 51.4533C52.9889 51.4533 53.5861 51.72 54.015 52.2535C54.4439 52.7827 54.6586 53.4942 54.6586 54.3872C54.6586 55.3805 54.4172 56.1769 53.9339 56.776C53.4506 57.3713 52.7897 57.6689 51.9511 57.6689C51.1819 57.6689 50.5884 57.3371 50.1708 56.6719ZM50.1473 54.2771V55.1067C50.1473 55.5975 50.3058 56.0147 50.6231 56.3588C50.9442 56.6991 51.3497 56.8692 51.8405 56.8692C52.4166 56.8692 52.867 56.6489 53.1919 56.2083C53.52 55.7677 53.6841 55.155 53.6841 54.3699C53.6841 53.7089 53.5317 53.191 53.2266 52.816C52.9214 52.441 52.5075 52.2535 51.9858 52.2535C51.4327 52.2535 50.9883 52.4466 50.6522 52.8333C50.3156 53.2163 50.1473 53.6972 50.1473 54.2771Z" fill="#7952B3"/>
</g>
<defs>
<filter id="filter0_d_469_653" x="17.2555" y="9.78707" width="26.86" height="32.8481" filterUnits="userSpaceOnUse" color-interpolation-filters="sRGB">
<feFlood flood-opacity="0" result="BackgroundImageFix"/>
<feColorMatrix in="SourceAlpha" type="matrix" values="0 0 0 0 0 0 0 0 0 0 0 0 0 0 0 0 0 0 127 0" result="hardAlpha"/>
<feOffset dy="0.983"/>
<feGaussianBlur stdDeviation="1.965"/>
<feColorMatrix type="matrix" values="0 0 0 0 0 0 0 0 0 0 0 0 0 0 0 0 0 0 0.15 0"/>
<feBlend mode="normal" in2="BackgroundImageFix" result="effect1_dropShadow_469_653"/>
<feBlend mode="normal" in="SourceGraphic" in2="effect1_dropShadow_469_653" result="shape"/>
</filter>
<linearGradient id="paint0_linear_469_653" x1="9.28094" y1="2.81439" x2="60.8003" y2="43.711" gradientUnits="userSpaceOnUse">
<stop stop-color="#9013FE"/>
<stop offset="1" stop-color="#6610F2"/>
</linearGradient>
<linearGradient id="paint1_linear_469_653" x1="22.9837" y1="14.3784" x2="34.499" y2="33.8541" gradientUnits="userSpaceOnUse">
<stop stop-color="white"/>
<stop offset="1" stop-color="#F1E5FC"/>
</linearGradient>
<clipPath id="clip0_469_653">
<rect width="60" height="60" fill="white" transform="translate(0 0.609375)"/>
</clipPath>
</defs>
</svg>
