<svg width="60" height="85" viewBox="0 0 60 85" fill="none" xmlns="http://www.w3.org/2000/svg">
<g clip-path="url(#clip0_469_650)">
<path d="M29.9627 84.3956L5.545 77.617L0.103516 16.5858H59.8949L54.4478 77.6077L29.9627 84.3956Z" fill="#264DE4"/>
<path d="M49.7845 73.722L54.4391 21.5759H29.9992V79.207L49.7845 73.722Z" fill="#2965F1"/>
<path d="M12.5779 44.2116L13.2487 51.6968H29.9992V44.2116H12.5779ZM11.2298 29.0613L11.9102 36.5466H29.9992V29.0613H11.2298ZM29.9992 63.6516L29.9664 63.6602L21.6302 61.4093L21.0972 55.4395H13.5831L14.6317 67.1925L29.9648 71.4487L29.9992 71.4394V63.6516Z" fill="#EBEBEB"/>
<path d="M14.1752 0H23.2408V3.79125H17.9664V7.5825H23.2413V11.3735H14.1752V0ZM25.0541 0H34.12V3.29672H28.8454V3.95602H34.12V11.5385H25.0544V8.07656H30.329V7.41727H25.0539L25.0541 0ZM35.9334 0H44.9992V3.29672H39.7246V3.95602H44.9992V11.5385H35.9334V8.07656H41.208V7.41727H35.9336L35.9334 0Z" fill="black"/>
<path d="M47.3727 44.2116L48.7239 29.0613H29.9734V36.5466H40.5208L39.8397 44.2116H29.9734V51.6968H39.1907L38.3216 61.4046L29.9732 63.6579V71.4452L45.3184 67.1925L47.1902 46.2216L47.3727 44.2116Z" fill="white"/>
</g>
<defs>
<clipPath id="clip0_469_650">
<rect width="60" height="84.6094" fill="white"/>
</clipPath>
</defs>
</svg>
