<svg width="60" height="61" viewBox="0 0 60 61" fill="none" xmlns="http://www.w3.org/2000/svg">
<g clip-path="url(#clip0_469_654)">
<path d="M58.8672 27.9337L32.666 1.74185C32.3072 1.38214 31.8809 1.09674 31.4117 0.902016C30.9424 0.70729 30.4393 0.607056 29.9313 0.607056C29.4232 0.607056 28.9201 0.70729 28.4509 0.902016C27.9816 1.09674 27.5554 1.38214 27.1966 1.74185L21.7666 7.18122L28.6703 14.0756C29.4813 13.8005 30.3531 13.7581 31.187 13.9533C32.0208 14.1485 32.7832 14.5735 33.3878 15.18C34.6778 16.47 35.0378 18.3243 34.4922 19.9256L41.1335 26.5762C41.9471 26.2929 42.8243 26.2452 43.6639 26.4386C44.5035 26.632 45.2714 27.0586 45.8791 27.6693C47.6866 29.4656 47.6866 32.3756 45.8791 34.1737C45.4529 34.6007 44.9467 34.9395 44.3895 35.1706C43.8322 35.4018 43.2349 35.5208 42.6316 35.5208C42.0283 35.5208 41.4309 35.4018 40.8737 35.1706C40.3164 34.9395 39.8102 34.6007 39.3841 34.1737C38.7441 33.5334 38.3065 32.719 38.1258 31.8318C37.9451 30.9447 38.0293 30.024 38.3678 29.1843L32.1466 22.9931V39.3112C32.5853 39.5268 33.0053 39.8193 33.3672 40.1812C35.1541 41.9887 35.1541 44.8875 33.3672 46.6856C32.501 47.5483 31.3282 48.0327 30.1056 48.0327C28.8831 48.0327 27.7103 47.5483 26.8441 46.6856C26.3081 46.1494 25.9129 45.489 25.6938 44.7632C25.4747 44.0374 25.4384 43.2686 25.5881 42.5254C25.7379 41.7822 26.0691 41.0875 26.5522 40.5031C27.0353 39.9188 27.6554 39.463 28.3572 39.1762V22.7025C27.7974 22.4647 27.2873 22.1238 26.8535 21.6975C26.2082 21.0539 25.7697 20.2325 25.594 19.3384C25.4183 18.4442 25.5134 17.5179 25.8672 16.6781L19.0891 9.86247L1.12096 27.8212C0.402654 28.5502 0 29.5325 0 30.5559C0 31.5793 0.402654 32.5616 1.12096 33.2906L27.3222 59.4825C27.681 59.8422 28.1072 60.1276 28.5765 60.3223C29.0458 60.517 29.5488 60.6173 30.0569 60.6173C30.565 60.6173 31.068 60.517 31.5373 60.3223C32.0066 60.1276 32.4328 59.8422 32.7916 59.4825L58.8653 33.4087C59.225 33.0499 59.5104 32.6237 59.7052 32.1544C59.8999 31.6852 60.0001 31.1821 60.0001 30.674C60.0001 30.166 59.8999 29.6629 59.7052 29.1936C59.5104 28.7244 59.225 28.2981 58.8653 27.9393L58.8672 27.9337Z" fill="#9747FF"/>
</g>
<defs>
<clipPath id="clip0_469_654">
<rect width="60" height="60" fill="white" transform="translate(0 0.609375)"/>
</clipPath>
</defs>
</svg>
