<svg width="60" height="60" viewBox="0 0 60 60" fill="none" xmlns="http://www.w3.org/2000/svg">
<path d="M13.0573 54.5409L9.28711 12.2545H50.7143L46.9404 54.5344L29.9754 59.2373L13.0573 54.5409Z" fill="#E44D26"/>
<path d="M30 55.6425L43.7081 51.8419L46.9336 15.7125H30V55.6425Z" fill="#F16529"/>
<path d="M30.0006 31.3959H23.1377L22.6642 26.0845H30.0006V20.8983H16.9961L17.1198 22.29L18.3948 36.5817H30.0006V31.3959ZM30.0006 44.8645L29.9777 44.8706L24.2022 43.3106L23.8328 39.1748H18.6264L19.353 47.3179L29.9767 50.2673L30.0006 50.2603V44.8645Z" fill="#EBEBEB"/>
<path d="M13.1406 0.762634H15.7759V3.36701H18.1872V0.762634H20.823V8.64795H18.1872V6.00748H15.7764V8.64795H13.1406V0.762634ZM24.2884 3.37779H21.9681V0.762634H29.2455V3.37779H26.9242V8.64795H24.2884V3.37779ZM30.4005 0.762634H33.1483L34.8391 3.53342L36.528 0.762634H39.2772V8.64795H36.6517V4.73951L34.8391 7.5431H34.7931L32.9791 4.73951V8.64795H30.4V0.762634H30.4005ZM40.5892 0.762634H43.2255V6.0417H46.9319V8.64842H40.5892V0.762634Z" fill="black"/>
<path d="M29.9824 31.3959V36.5817H36.3687L35.7668 43.3078L29.9824 44.8692V50.2645L40.6146 47.3179L40.6924 46.4414L41.9112 32.7881L42.0377 31.3959H40.6399H29.9824ZM29.9824 20.8983V26.0845H42.5098L42.6134 24.9187L42.8501 22.29L42.9743 20.8983H29.9824Z" fill="white"/>
</svg>
