<svg width="60" height="61" viewBox="0 0 60 61" fill="none" xmlns="http://www.w3.org/2000/svg">
<path d="M13.011 10.1817C9.56474 15.1341 9.99364 21.578 12.6266 26.8411L12.8193 27.2151L12.9426 27.4523L13.0194 27.5887L13.1568 27.8344C13.2383 27.9783 13.3222 28.1212 13.408 28.2651L13.5515 28.5014C13.6466 28.6542 13.7436 28.8061 13.843 28.9575L13.9672 29.1492C14.1046 29.3541 14.2447 29.558 14.3896 29.7591L14.4018 29.7745L14.473 29.8706C14.5982 30.0431 14.7271 30.2137 14.8579 30.383L15.0027 30.5672C15.1194 30.7139 15.238 30.8592 15.3585 31.005L15.4944 31.1672C15.6561 31.3575 15.8216 31.5478 15.9899 31.7334L15.9997 31.7437L16.019 31.7648C16.1835 31.9444 16.3518 32.1201 16.5229 32.2959L16.6841 32.4586C16.8163 32.5917 16.9508 32.7225 17.0863 32.8528L17.2508 33.0094C17.4322 33.18 17.6151 33.3478 17.8021 33.5109L17.8105 33.5184L17.9066 33.6C18.0711 33.743 18.2385 33.8836 18.4072 34.0228L18.6144 34.1883C18.7522 34.2984 18.8915 34.4076 19.0316 34.5145L19.2552 34.6837C19.4099 34.7976 19.566 34.9097 19.7235 35.0198L19.8936 35.1408L19.941 35.1745C20.09 35.2776 20.2433 35.3766 20.3957 35.4755L20.5925 35.6067C20.8269 35.7544 21.0646 35.9011 21.3046 36.0426L21.5015 36.1537C21.6782 36.2555 21.8558 36.3558 22.0358 36.4533L22.3316 36.6061L22.7141 36.8048L22.8022 36.8475L22.9588 36.923C23.159 37.0186 23.361 37.1128 23.5649 37.2037L23.6929 37.2609C23.9263 37.3631 24.1621 37.4611 24.3997 37.5553L24.5722 37.6228C24.7921 37.7081 25.0152 37.7911 25.2393 37.8698L25.3232 37.8989C25.5688 37.9851 25.8172 38.0644 26.0671 38.1426L26.2466 38.1961C26.5007 38.273 26.7524 38.3639 27.0144 38.4126C43.6799 41.4516 48.5207 28.3983 48.5207 28.3983C44.4547 33.6951 37.2383 35.092 30.4007 33.5367C30.1415 33.4781 29.8902 33.397 29.6376 33.323L29.4472 33.2648C29.2008 33.1897 28.9558 33.11 28.7122 33.0258L28.6115 32.9897C28.3943 32.9127 28.1784 32.8326 27.9636 32.7492L27.7818 32.678C27.5469 32.5851 27.313 32.4881 27.0824 32.3873L26.9427 32.325C26.7449 32.2361 26.5481 32.1446 26.3526 32.0508L26.1819 31.9687C26.0286 31.8942 25.8772 31.815 25.7254 31.7367L25.4211 31.5769C25.236 31.4784 25.0546 31.3753 24.8741 31.2703L24.6894 31.1677C24.4497 31.0257 24.2122 30.88 23.9769 30.7308L23.7847 30.6028C23.614 30.4932 23.4451 30.3808 23.278 30.2658L23.1144 30.1509C22.9534 30.0375 22.7937 29.9222 22.6354 29.805L22.423 29.6442C22.2777 29.5331 22.1333 29.4211 21.9908 29.3062L21.7982 29.1516C21.6163 29.0025 21.4368 28.8516 21.2596 28.6973L21.2005 28.6481C21.0092 28.4794 20.8205 28.3078 20.6343 28.1334L20.4749 27.9797C20.3368 27.8492 20.2012 27.7162 20.068 27.5808L19.9086 27.4214C19.739 27.248 19.5726 27.0722 19.4094 26.8936L19.3846 26.8669C19.2121 26.6781 19.0433 26.4861 18.8783 26.2908L18.7457 26.1333C18.6222 25.9848 18.5008 25.8346 18.3815 25.6828L18.2479 25.5164C18.1049 25.3317 17.9646 25.145 17.8269 24.9562C14.031 19.778 12.6669 12.6361 15.7011 6.77109M23.7079 6.0089C21.216 9.59484 21.351 14.3962 23.2954 18.1884C23.6207 18.8259 23.9889 19.4406 24.3974 20.0283C24.7705 20.5641 25.1849 21.2006 25.6804 21.6305C25.8599 21.8283 26.0479 22.0214 26.2396 22.2108L26.3868 22.3566C26.5729 22.537 26.7622 22.7147 26.9577 22.8872L26.9811 22.9073L26.9868 22.913C27.2033 23.1028 27.4269 23.2851 27.6538 23.4651L27.8052 23.5833C28.033 23.7577 28.2651 23.9292 28.5032 24.0928L28.5233 24.1083L28.8421 24.3178L28.993 24.4176C29.1632 24.5269 29.3352 24.6328 29.5105 24.7345L29.5836 24.7776C29.7346 24.8644 29.8874 24.9497 30.0407 25.0331L30.2033 25.1175L30.523 25.2834L30.5713 25.3055C30.7911 25.4133 31.0124 25.5178 31.2388 25.6162L31.386 25.6772C31.5669 25.7536 31.7493 25.8286 31.933 25.8989L32.1674 25.9851C32.3343 26.047 32.5011 26.1037 32.6699 26.16L32.8968 26.2326C33.1363 26.3067 33.3735 26.4009 33.6229 26.4426C46.4901 28.5741 49.4605 18.667 49.4605 18.667C46.783 22.5239 41.5972 24.3637 36.0636 22.9275C35.8191 22.863 35.576 22.7928 35.3347 22.717L35.1158 22.6462C34.9448 22.5912 34.775 22.5327 34.6063 22.4709L34.3761 22.3852C34.192 22.3142 34.009 22.2403 33.8272 22.1634L33.6796 22.1011C33.4534 22.0024 33.2295 21.8983 33.0083 21.7889L32.6718 21.6178L32.4777 21.518C32.3343 21.4401 32.1918 21.3595 32.0516 21.277L31.9499 21.2194C31.7758 21.118 31.6039 21.013 31.4343 20.9044L31.2786 20.8008L30.9449 20.5795C30.7089 20.4157 30.4769 20.2461 30.2493 20.0709L30.0927 19.9472C27.6707 18.0352 25.7507 15.4214 24.838 12.458C23.8813 9.38437 24.0876 5.93437 25.7451 3.13406M32.7046 2.89124C31.2355 5.05312 31.0911 7.73859 32.1107 10.1264C33.1855 12.6609 35.3882 14.6489 37.9593 15.592L38.279 15.7022L38.4196 15.7472C38.571 15.795 38.7215 15.8503 38.878 15.8794C45.9829 17.2523 47.9099 12.2339 48.4227 11.4947C46.7347 13.9251 43.8979 14.5087 40.4169 13.6636C40.1321 13.5909 39.8512 13.5041 39.5751 13.4034C39.2347 13.2824 38.9008 13.1437 38.5747 12.9881C37.9563 12.6903 37.369 12.332 36.8211 11.9184C33.7063 9.55499 31.7718 5.04702 33.8043 1.37531" fill="#0868AC"/>
<path d="M31.1065 45.7477H29.1255C29.0695 45.7498 29.0156 45.77 28.972 45.8052C28.9283 45.8404 28.8972 45.8888 28.8832 45.9431L28.1801 49.1963L27.4769 52.4494C27.4631 52.5037 27.4321 52.5521 27.3885 52.5873C27.3449 52.6225 27.2911 52.6427 27.2351 52.6448H25.833C24.446 52.6448 24.6063 51.6853 24.8904 50.3709L24.8988 50.3311L24.9298 50.1652L24.9354 50.1342L24.9987 49.7967L25.0666 49.4353L25.1388 49.0673L25.4585 47.5055L25.7787 45.9436C25.7848 45.9197 25.7852 45.8948 25.7799 45.8707C25.7746 45.8467 25.7638 45.8242 25.7482 45.8051C25.7327 45.786 25.7129 45.7708 25.6904 45.7608C25.6679 45.7507 25.6434 45.7461 25.6188 45.7472H23.5859C23.5299 45.7492 23.476 45.7695 23.4326 45.8048C23.3891 45.8402 23.3583 45.8887 23.3449 45.9431L22.9076 48.0169L22.4707 50.0911L22.4698 50.0939L22.4294 50.287C21.926 52.5853 22.0591 54.7777 24.7957 54.8466L24.8754 54.848H29.1705C29.2266 54.8459 29.2804 54.8257 29.324 54.7904C29.3676 54.7552 29.3986 54.7068 29.4124 54.6525L30.3387 50.2983L31.2649 45.9436C31.2879 45.8358 31.2166 45.7481 31.1065 45.7477ZM9.89273 45.7247H7.71773C7.66154 45.7269 7.60752 45.747 7.56358 45.7821C7.51964 45.8172 7.48808 45.8654 7.47351 45.9197L7.26726 46.83L7.06101 47.7403C7.0371 47.8477 7.10695 47.9353 7.2171 47.9353H9.40898C9.46511 47.9332 9.51907 47.9131 9.56283 47.8779C9.60658 47.8427 9.63779 47.7942 9.65179 47.7398L9.85101 46.83L10.0502 45.9202C10.0732 45.8128 10.0029 45.7247 9.89273 45.7247ZM9.26179 48.5578H7.06945C7.01328 48.5601 6.9593 48.5802 6.91537 48.6153C6.87144 48.6504 6.83986 48.6985 6.82523 48.7528L6.51726 50.1169L6.20976 51.4805L6.12398 51.8714L5.8282 53.2636L5.53289 54.6563C5.50992 54.7636 5.46257 54.937 5.42742 55.0411C5.42742 55.0411 5.01773 56.2598 4.32914 56.2458L4.24289 56.2439L3.6471 56.2331C3.59114 56.2345 3.5366 56.2537 3.49239 56.288C3.44817 56.3224 3.41614 56.37 3.40101 56.4239L3.17367 57.3797L2.94679 58.335C2.92101 58.4419 2.99039 58.53 3.0996 58.5319C3.49007 58.5366 4.36476 58.5464 4.89398 58.5464C6.61382 58.5464 7.52085 57.5934 8.10163 54.8513L8.78179 51.7041L9.41976 48.7523C9.44273 48.6459 9.37148 48.5578 9.26179 48.5578ZM49.6291 47.82L49.5382 47.4445L49.4487 47.0602L49.4032 46.8661C49.2251 46.1738 48.7024 45.7748 47.5671 45.7748L45.7999 45.773L44.1724 45.7706H42.341C42.285 45.7727 42.2312 45.7929 42.1877 45.8281C42.1442 45.8634 42.1133 45.9118 42.0996 45.9661L42.0185 46.3486L41.9229 46.8005L41.8962 46.9275L41.0716 50.79L40.2888 54.4566C40.2654 54.5644 40.2579 54.6966 40.271 54.75C40.2841 54.8039 40.4955 54.848 40.6052 54.848H42.2571C42.3673 54.848 42.5065 54.8283 42.5665 54.8039C42.6265 54.7795 42.7151 54.5634 42.7371 54.4561L43.0305 53.0034L43.3244 51.5503L43.3249 51.548L43.3643 51.3544L43.7205 49.6856L44.0351 48.2119C44.0489 48.1577 44.0799 48.1094 44.1234 48.0742C44.1669 48.0389 44.2206 48.0187 44.2765 48.0164L49.4744 48.0141C49.5846 48.015 49.654 47.9273 49.6291 47.82ZM56.3205 44.4263L55.9202 44.4277H54.2566C54.1957 44.4311 54.1362 44.4476 54.0822 44.4762C54.0282 44.5048 53.9811 44.5446 53.944 44.5931L50.2648 49.9828C50.2029 50.0738 50.1321 50.0606 50.1077 49.9538L49.8368 48.7664C49.8222 48.712 49.7906 48.6637 49.7465 48.6286C49.7025 48.5936 49.6484 48.5735 49.5921 48.5714H47.2273C47.1171 48.5714 47.0519 48.6577 47.0819 48.7631L48.1418 52.4761C48.1718 52.582 48.1741 52.7555 48.1469 52.8623L47.6852 54.6591C47.6576 54.7659 47.7251 54.8527 47.8352 54.8527H50.1729C50.2294 54.8504 50.2838 54.8305 50.3286 54.7958C50.3733 54.7611 50.406 54.7133 50.4223 54.6591L50.8844 52.8623C50.921 52.7357 50.9785 52.6161 51.0546 52.5084L57.0274 44.5814C57.094 44.4933 57.0579 44.4216 56.9482 44.4225L56.3205 44.4263ZM37.5302 49.0758V49.0739C37.5221 49.1305 37.4941 49.1824 37.4513 49.2203C37.4084 49.2581 37.3535 49.2795 37.2963 49.2806H34.2977C34.1937 49.2806 34.1412 49.2103 34.1566 49.1231L34.1594 49.1161L34.1576 49.117L34.159 49.1072L34.1726 49.0561C34.459 48.2948 35.0421 47.7952 36.1385 47.7952C37.3732 47.7947 37.6141 48.3975 37.5302 49.0758ZM36.6504 45.6145C32.8015 45.6145 31.8893 47.9508 31.3774 50.3091C30.866 52.7128 30.9096 54.9595 34.893 54.9595H35.3759L35.4959 54.9591H35.524L36.0021 54.9577H36.0105C37.0624 54.9534 38.1176 54.9455 38.5446 54.9422C38.6002 54.9394 38.6535 54.9187 38.6965 54.8832C38.7395 54.8478 38.7699 54.7994 38.7832 54.7453L38.9444 53.9573L38.9759 53.8041L39.168 52.8638C39.1742 52.8399 39.1746 52.815 39.1693 52.7909C39.164 52.7669 39.1532 52.7445 39.1376 52.7254C39.1221 52.7063 39.1023 52.6912 39.0798 52.6812C39.0573 52.6712 39.0328 52.6666 39.0082 52.6678H35.4274C34.0029 52.6678 33.5801 52.2895 33.7362 51.1767H39.4601L39.4596 51.1772L39.4634 51.1767C39.5086 51.1748 39.5524 51.1598 39.5894 51.1336C39.6264 51.1074 39.655 51.0711 39.6719 51.0291L39.6855 50.9794L39.6851 50.9798C40.5349 47.7741 40.2912 45.615 36.6504 45.6145ZM18.4582 49.0636L18.4038 49.2553L17.9716 50.7877L17.5394 52.3191C17.5218 52.3733 17.4879 52.4209 17.4424 52.4553C17.3969 52.4898 17.3419 52.5094 17.2849 52.5117H14.9974C13.2621 52.5117 12.8393 51.1542 13.2621 49.1527C13.6844 47.1052 14.5127 45.8325 16.2209 45.7036C18.5552 45.5273 19.0221 47.1689 18.4582 49.0636ZM20.0276 52.3941C20.0276 52.3941 21.1062 49.7747 21.3509 48.2625C21.6851 46.238 20.6712 43.3008 16.7552 43.3008C12.8618 43.3008 11.1705 46.1044 10.5255 49.1527C9.88054 52.223 10.7257 54.915 14.5971 54.893L17.6515 54.8817L20.5057 54.8714C20.5623 54.8686 20.6166 54.8485 20.6614 54.8138C20.7062 54.779 20.7392 54.7314 20.756 54.6773L21.2534 52.7808C21.281 52.6739 21.214 52.5867 21.1038 52.5858L20.6271 52.583L20.1504 52.5802C20.0571 52.5797 20.0037 52.5188 20.0149 52.4386L20.0276 52.3941ZM39.3026 50.6405C39.3026 50.6577 39.2992 50.6748 39.2927 50.6907C39.2861 50.7066 39.2765 50.7211 39.2643 50.7333C39.2521 50.7456 39.2377 50.7553 39.2218 50.7619C39.2059 50.7685 39.1888 50.7719 39.1716 50.772C39.1543 50.772 39.1372 50.7686 39.1213 50.7621C39.1054 50.7555 39.0909 50.7458 39.0787 50.7337C39.0665 50.7215 39.0568 50.7071 39.0502 50.6911C39.0435 50.6752 39.0401 50.6582 39.0401 50.6409C39.04 50.6061 39.0538 50.5727 39.0783 50.5481C39.1029 50.5234 39.1363 50.5095 39.1711 50.5095C39.2059 50.5094 39.2393 50.5232 39.264 50.5477C39.2886 50.5723 39.3025 50.6057 39.3026 50.6405Z" fill="#131B28"/>
</svg>
