<svg width="10" height="10" viewBox="0 0 10 10" fill="none" xmlns="http://www.w3.org/2000/svg">
<path d="M5 7.65416L4.20375 8.45041C3.85176 8.80231 3.3744 9 2.87667 9C2.37894 9 1.90159 8.80231 1.54959 8.45041C1.19769 8.09841 1 7.62106 1 7.12333C1 6.6256 1.19769 6.14824 1.54959 5.79625L3.14209 4.20375C3.49408 3.85185 3.97144 3.65416 4.46917 3.65416C4.9669 3.65416 5.44425 3.85185 5.79625 4.20375" stroke="#545454" stroke-linecap="round"/>
<path d="M4.99998 2.34584L5.79623 1.54959C6.14823 1.19769 6.62558 1 7.12331 1C7.62104 1 8.0984 1.19769 8.45039 1.54959C8.80229 1.90159 8.99998 2.37894 8.99998 2.87667C8.99998 3.3744 8.80229 3.85176 8.45039 4.20375L6.8579 5.79625C6.5059 6.14815 6.02855 6.34584 5.53082 6.34584C5.03308 6.34584 4.55573 6.14815 4.20374 5.79625" stroke="#545454" stroke-linecap="round"/>
</svg>
