<svg width="60" height="61" viewBox="0 0 60 61" fill="none" xmlns="http://www.w3.org/2000/svg">
<path fill-rule="evenodd" clip-rule="evenodd" d="M40.9023 47.5496C40.9816 47.3972 41.0575 47.2627 41.1222 47.1235C41.163 47.0344 41.2258 47.0166 41.3144 47.0189C41.8455 47.0339 42.3766 47.0503 42.9081 47.0555C43.3595 47.0602 43.8119 47.0517 44.2637 47.0466C44.7728 47.0405 45.2819 47.0138 45.7905 47.0283C46.4678 47.048 47.1278 47.1807 47.7405 47.4821C48.4722 47.8425 49.0258 48.3914 49.4031 49.1147C49.6404 49.5733 49.7884 50.0728 49.8395 50.5866C49.9202 51.3403 49.8672 52.0767 49.6281 52.7977C49.3319 53.6911 48.7694 54.375 47.988 54.8874C47.3866 55.2816 46.727 55.5146 46.0202 55.6477C45.272 55.7888 44.5216 55.7433 43.7711 55.7456C42.948 55.7489 42.1253 55.7311 41.3022 55.7217C41.1583 55.7203 41.1377 55.6931 41.1756 55.5558L41.2108 55.4292C41.2909 55.1771 41.3341 55.1658 41.59 55.1236C41.7714 55.0951 41.9449 55.0291 42.0995 54.93C42.1858 54.8728 42.2214 54.7238 42.2552 54.6089C42.2842 54.5086 42.2856 54.3985 42.2866 54.2925C42.2983 52.6871 42.3105 51.0821 42.317 49.4775C42.3188 49.0717 42.3087 48.6659 42.2866 48.2606C42.2706 47.9771 42.1192 47.783 41.7817 47.716C41.5192 47.6639 41.2548 47.6236 40.9909 47.5772L40.9023 47.5496ZM48.438 51.4369C48.4023 51.1172 48.385 50.7947 48.3278 50.4797C48.1909 49.7236 47.86 49.065 47.2787 48.5489C46.3389 47.715 45.2073 47.5866 44.0214 47.686C43.7514 47.7085 43.6933 47.8008 43.6891 48.0783C43.6825 48.4721 43.6759 48.8658 43.6755 49.2596C43.6736 50.5083 43.6736 51.7571 43.6755 53.0058C43.6759 53.3611 43.6797 53.7164 43.69 54.0708C43.7012 54.4336 43.833 54.7406 44.1883 54.8813C44.7484 55.103 45.3377 55.1292 45.9255 55.0388C46.8644 54.8949 47.5211 54.3478 47.9617 53.528C48.3105 52.8774 48.4089 52.1672 48.438 51.4369ZM50.7203 55.6889C50.7091 55.4944 50.7887 55.3336 50.8872 55.186C50.9139 55.1461 51.0058 55.148 51.0691 55.1353L51.6062 55.0289C51.7961 54.9886 51.8959 54.8611 51.9227 54.675C51.9405 54.5522 51.9573 54.428 51.9587 54.3038C51.9715 53.3208 51.9807 52.3379 51.9864 51.3549C51.9911 50.3705 51.9873 49.3861 51.9873 48.4017L51.9831 48.2138C51.9639 47.8974 51.8111 47.7333 51.497 47.6869L50.8159 47.5833C50.732 47.5721 50.7016 47.5317 50.732 47.4572C50.7845 47.3302 50.8347 47.1985 50.9087 47.0841C50.9364 47.0419 51.0297 47.0255 51.0925 47.0269C51.4178 47.0316 51.7431 47.056 52.0684 47.0555L54.9002 47.0386C55.4458 47.0382 55.9727 47.1333 56.462 47.3944C57.0006 47.6813 57.302 48.1252 57.3883 48.7299C57.4783 49.365 57.2856 49.9003 56.8216 50.3255C56.6308 50.5008 56.3837 50.6152 56.1625 50.7577L56.0903 50.8027C56.2956 50.8782 56.4911 50.9433 56.6814 51.0211C57.2383 51.2494 57.6812 51.6061 57.9156 52.1757C58.1008 52.6252 58.1008 53.0939 57.9911 53.5599C57.8205 54.2892 57.34 54.7744 56.7152 55.1414C56.1287 55.486 55.4941 55.6866 54.8181 55.7203C54.1947 55.7517 53.5684 55.74 52.9436 55.7471L52.5817 55.7489C51.9795 55.7351 51.3773 55.7201 50.7752 55.7039L50.7203 55.6889ZM53.3158 52.8347H53.3219C53.3219 53.1432 53.3177 53.4516 53.3233 53.76C53.327 53.9597 53.32 54.165 53.3631 54.3572C53.4278 54.6446 53.5591 54.9038 53.8816 54.9863C54.3127 55.0996 54.7631 55.1194 55.2025 55.0444C55.7542 54.9483 56.1944 54.6717 56.4358 54.1463C56.6148 53.7558 56.6416 53.3419 56.5802 52.9191C56.4986 52.3622 56.2028 51.9581 55.7111 51.6933C55.3886 51.5194 55.0445 51.413 54.678 51.3989C54.2673 51.3835 53.8562 51.3825 53.4456 51.3699C53.3303 51.3666 53.3144 51.4252 53.3148 51.5199C53.3172 51.9577 53.3158 52.396 53.3158 52.8347ZM54.19 50.7371C54.4145 50.7258 54.6686 50.7225 54.9212 50.6972C55.405 50.6489 55.7458 50.4057 55.9234 49.943C56.0139 49.7082 56.0102 49.4663 56.0125 49.2221C56.0195 48.586 55.6483 48.0647 55.0441 47.8491C54.5777 47.6827 54.0967 47.6799 53.613 47.693C53.417 47.6981 53.3294 47.7839 53.3266 47.9813L53.2975 50.5542C53.2961 50.6564 53.3402 50.7005 53.4395 50.7038L54.19 50.7371Z" fill="#94795D"/>
<path fill-rule="evenodd" clip-rule="evenodd" d="M4.94134 55.1943L4.90712 55.6368C4.58837 55.6368 4.29446 55.6345 4.00056 55.6378C3.44696 55.6434 2.89337 55.6523 2.33931 55.6603L2.28587 55.6636C2.20665 55.6542 2.06274 55.6542 2.05899 55.6308C2.03556 55.499 2.04306 55.3608 2.04915 55.2244C2.04962 55.2089 2.10353 55.1892 2.13493 55.1817L2.56571 55.0856C2.83431 55.0158 2.92899 54.9 2.94165 54.6225C2.95618 54.3098 2.97071 53.9967 2.97212 53.684C2.97634 52.9143 2.97165 52.1456 2.97493 51.3759C2.9754 51.1959 2.91306 51.0618 2.74524 50.9887C2.54584 50.9002 2.34503 50.8149 2.1429 50.7328C2.04728 50.6943 1.92306 50.6733 1.93431 50.5448C1.94556 50.414 2.06603 50.3798 2.17946 50.354C2.64915 50.2467 3.11931 50.1422 3.58759 50.0278C3.73853 49.9908 3.8829 49.9284 4.06337 49.8656C4.07274 49.9631 4.09009 50.0559 4.08821 50.1487L4.06056 50.5898C4.06009 50.6395 4.08587 50.7061 4.1229 50.7337C4.1454 50.7511 4.22087 50.7197 4.25837 50.6906C4.65868 50.3859 5.08243 50.1229 5.56571 49.9697C6.31431 49.732 6.95696 49.9523 7.40696 50.5978C7.5654 50.8251 7.56587 50.8251 7.78571 50.6662C8.16306 50.392 8.55774 50.1501 8.99931 49.9908C9.96868 49.6406 10.9001 50.085 11.2371 51.0614C11.3599 51.4158 11.4068 51.7819 11.4059 52.1559L11.397 54.6393C11.3965 54.8442 11.4645 54.9609 11.6595 55.0247C11.8784 55.0964 12.1052 55.1456 12.3518 55.2103L12.2946 55.6373C12.0143 55.6373 11.7565 55.6354 11.4987 55.6378C10.8687 55.6434 10.2387 55.6467 9.60915 55.6612C9.49946 55.664 9.47087 55.6368 9.46524 55.5342C9.44696 55.2056 9.44415 55.2061 9.75353 55.132L9.85759 55.1053C10.1599 55.0228 10.2607 54.93 10.2631 54.6234C10.2701 53.7431 10.2884 52.8604 10.2438 51.982C10.1974 51.0708 9.47415 50.5856 8.59103 50.819C8.30599 50.8971 8.03755 51.0264 7.79884 51.2006C7.71681 51.2592 7.70134 51.3267 7.7079 51.4293C7.73274 51.8175 7.74821 52.2061 7.75149 52.5947C7.75712 53.2748 7.74868 53.955 7.75149 54.6356C7.75243 54.9112 7.84665 55.0167 8.11899 55.0804L8.52353 55.1737L8.59853 55.1906C8.60415 55.32 8.60931 55.4493 8.60321 55.5787C8.59946 55.6598 8.53665 55.6669 8.46634 55.6654C8.07306 55.6556 7.67931 55.6425 7.28603 55.6434C6.80743 55.6443 6.32931 55.6579 5.85118 55.6664H5.73868C5.73868 55.529 5.73212 55.3978 5.74337 55.267C5.74571 55.2356 5.80103 55.1915 5.83899 55.1817L6.31056 55.0818C6.51071 55.0326 6.60634 54.93 6.61759 54.7265C6.67103 53.7843 6.70946 52.8417 6.62087 51.9C6.59928 51.714 6.54767 51.5327 6.46806 51.3633C6.22665 50.8298 5.68337 50.6072 5.05665 50.7675C4.75899 50.8434 4.4904 50.9798 4.23634 51.1518C4.18093 51.186 4.13543 51.234 4.10434 51.2911C4.07326 51.3483 4.05768 51.4126 4.05915 51.4776C4.05915 52.4175 4.06243 53.3573 4.06524 54.2967L4.0704 54.659C4.07603 54.9117 4.18337 55.0448 4.43415 55.0992C4.5954 55.1358 4.75853 55.1606 4.94134 55.1943Z" fill="#50382B"/>
<path fill-rule="evenodd" clip-rule="evenodd" d="M33.282 49.9618C33.3547 50.3152 33.3533 50.633 33.0936 50.8739C32.8358 51.1135 32.5096 51.0328 32.1913 50.9794C32.2208 51.1472 32.2536 51.2897 32.2696 51.4341C32.3853 52.5071 31.9236 53.3035 30.9285 53.7586C30.5525 53.9302 30.1536 53.9939 29.7463 54.0268C29.5438 54.0427 29.3666 54.1974 29.3474 54.3638C29.3277 54.5325 29.4336 54.706 29.6455 54.7566C29.8953 54.8161 30.156 54.833 30.4124 54.8625C30.9627 54.9253 31.5191 54.9539 32.0628 55.0524C32.885 55.2005 33.3439 55.9182 33.1991 56.7441C33.0702 57.4791 32.6445 58.0139 32.0511 58.4241C31.0513 59.1169 29.9544 59.3194 28.7863 58.966C28.1183 58.7635 27.6472 58.3243 27.4845 57.6136C27.403 57.2578 27.4897 56.9358 27.7574 56.6944C28.0756 56.4085 28.4221 56.1535 28.7553 55.8835L28.8631 55.7752L28.7394 55.6885C28.3996 55.5272 28.1277 55.3064 28.0222 54.923C27.9861 54.7932 28.0236 54.7078 28.1338 54.6413C28.3213 54.5283 28.5078 54.4135 28.693 54.2968C28.7802 54.2424 28.8664 54.1861 28.9475 54.1233C29.0581 54.0389 29.0483 53.9761 28.9161 53.9274C28.6086 53.8139 28.3353 53.6494 28.1235 53.3963C27.7695 52.9739 27.6692 52.471 27.6983 51.9399C27.7438 51.1102 28.1942 50.5636 28.9264 50.2121C29.7969 49.7944 30.6702 49.7682 31.5575 50.1488C31.8856 50.2894 32.2316 50.3194 32.5836 50.295C32.8466 50.2763 33.0763 50.1769 33.282 49.9618ZM30.0744 55.906C29.421 55.9003 29.2161 55.981 28.8327 56.3714C28.4033 56.8093 28.4056 57.4163 28.8341 57.856C29.1594 58.1893 29.5653 58.3453 30.0167 58.3922C30.5441 58.4466 31.0635 58.4246 31.5425 58.1607C32.0535 57.878 32.3075 57.353 32.1927 56.8243C32.0975 56.3878 31.776 56.1882 31.3846 56.0733C30.9392 55.943 30.4789 55.9182 30.0744 55.906ZM28.791 51.7303C28.8149 51.9118 28.8247 52.0955 28.865 52.2732C28.9695 52.7335 29.1697 53.138 29.6277 53.3428C30.1653 53.5843 30.852 53.4807 31.0874 52.726C31.2481 52.2237 31.2294 51.6812 31.0344 51.1913C30.9518 50.9673 30.803 50.7738 30.6078 50.6363C30.141 50.3105 29.2986 50.2674 28.9555 50.9874C28.8439 51.2213 28.8003 51.4702 28.791 51.7303Z" fill="#4F382B"/>
<path fill-rule="evenodd" clip-rule="evenodd" d="M22.1957 49.8459C22.213 49.9261 22.2477 50.017 22.2486 50.1084C22.2501 50.2823 22.2313 50.4562 22.2215 50.6301V50.7811L22.3686 50.6686C22.7718 50.3367 23.2049 50.0541 23.7093 49.9017C24.6196 49.6275 25.529 50.1258 25.8257 51.053C25.9382 51.4055 25.9827 51.7678 25.9869 52.1362C25.9963 52.9547 26.0019 53.7731 26.0104 54.5916C26.0132 54.8855 26.0469 54.938 26.3249 55.0228C26.4831 55.07 26.6444 55.1059 26.8077 55.1301C26.8972 55.1442 26.9357 55.1794 26.931 55.267L26.9319 55.3476C26.9286 55.6866 26.9052 55.702 26.5766 55.7011C25.79 55.6997 25.004 55.7044 24.2174 55.7109C23.983 55.7128 23.9825 55.7198 23.9591 55.4883L23.9544 55.3551C23.969 55.1555 23.9736 55.1573 24.1701 55.1283C24.3022 55.1086 24.4335 55.0781 24.5624 55.0444C24.695 55.0101 24.7588 54.9122 24.7766 54.7809C24.7855 54.7144 24.7972 54.6478 24.7968 54.5812C24.7855 53.6869 24.8 52.7916 24.7513 51.8986C24.7119 51.1762 24.1607 50.7459 23.4355 50.7952C23.086 50.8194 22.75 50.9399 22.4647 51.1434C22.2711 51.2789 22.2322 51.4744 22.2332 51.6848C22.2369 52.5211 22.2449 53.3573 22.2538 54.1941C22.2557 54.3773 22.2608 54.5606 22.2782 54.7425C22.2965 54.9412 22.3663 55.0214 22.5613 55.0645C22.7479 55.1058 22.9382 55.1297 23.1374 55.163L23.1543 55.3167C23.1608 55.6753 23.1233 55.702 22.775 55.7006C21.9618 55.6973 21.1485 55.7025 20.3357 55.7114C20.2077 55.7133 20.1533 55.673 20.1566 55.5483L20.1547 55.4948C20.1336 55.1719 20.143 55.1597 20.4486 55.1072L20.593 55.0781C20.924 55.0036 21.0088 54.9155 21.0135 54.5794C21.029 53.5148 21.0346 52.4508 21.0454 51.3862C21.0468 51.2334 20.9891 51.1148 20.8466 51.0516C20.6466 50.964 20.4455 50.8789 20.2433 50.7966C20.1318 50.7506 20.0043 50.7216 20 50.5673C19.9972 50.4586 20.1135 50.3625 20.2724 50.3301C20.5916 50.2655 20.9136 50.2116 21.2291 50.1323C21.5432 50.0541 21.8516 49.9491 22.1957 49.8459Z" fill="#4F372B"/>
<path fill-rule="evenodd" clip-rule="evenodd" d="M39.7797 52.6265C39.7647 53.6208 39.5064 54.4247 38.8033 55.028C37.9127 55.7934 36.5233 56.0536 35.3875 55.4812C34.9028 55.237 34.5466 54.8625 34.3145 54.3764C33.9588 53.6287 33.8697 52.8426 34.0553 52.0373C34.2391 51.2409 34.7214 50.6639 35.4433 50.2903C36.1858 49.9064 36.9677 49.7564 37.7922 49.958C38.8352 50.2125 39.5847 51.0628 39.7338 52.1456C39.7605 52.3355 39.7708 52.5276 39.7797 52.6265ZM38.5717 53.1651L38.5314 53.1605C38.5314 53.0667 38.5366 52.973 38.5305 52.8792C38.4963 52.2951 38.365 51.7387 38.0266 51.2498C37.7055 50.7867 37.2681 50.5134 36.6991 50.4736C36.062 50.4286 35.5267 50.7848 35.3388 51.4355C35.0566 52.4123 35.1522 53.3644 35.6481 54.2592C35.8642 54.6492 36.1844 54.937 36.6133 55.0884C37.4538 55.3842 38.1991 55.0012 38.418 54.1406C38.4986 53.8228 38.522 53.4905 38.5717 53.1651Z" fill="#4F382B"/>
<path fill-rule="evenodd" clip-rule="evenodd" d="M19.1343 52.7034C19.1169 53.4169 18.9487 54.0764 18.508 54.6497C18.036 55.2638 17.3873 55.5919 16.6494 55.7302C15.7771 55.8933 14.9577 55.7452 14.2569 55.1597C13.9241 54.8813 13.6968 54.5245 13.5468 54.1186C13.3007 53.453 13.2393 52.7709 13.3907 52.0758C13.5524 51.3319 13.9724 50.7633 14.6235 50.3817C15.3763 49.9416 16.1887 49.7452 17.0563 49.943C18.1719 50.198 18.816 50.925 19.0541 52.0256C19.1019 52.2478 19.1085 52.4775 19.1343 52.7034ZM17.9127 53.1741L17.8804 53.1694V53.0353C17.8621 52.3809 17.7341 51.7575 17.3437 51.2138C17.0544 50.8102 16.6673 50.557 16.1709 50.4863C15.3618 50.3709 14.833 50.8509 14.6577 51.503C14.429 52.3547 14.5007 53.1961 14.8546 54.0038C15.0754 54.5072 15.4241 54.8995 15.9599 55.0898C16.7952 55.3866 17.5518 54.9938 17.7632 54.1364C17.841 53.8228 17.8644 53.4956 17.9127 53.1741Z" fill="#4F372B"/>
<path fill-rule="evenodd" clip-rule="evenodd" d="M38.6065 16.3331C39.1816 17.9958 39.5951 19.6931 39.7315 21.4519C39.9002 23.6344 39.8234 25.8019 39.363 27.9483L39.304 28.1198C39.1596 28.1203 39.0124 28.102 38.8713 28.1241C37.6793 28.3116 36.4887 28.5056 35.2976 28.6988C34.0662 28.8984 32.8338 29.0902 31.6048 29.303C31.1693 29.378 30.6302 29.2884 30.4545 29.8903L30.3701 29.9189L30.4296 26.3198L30.3691 17.6358L30.9429 17.5373C31.8809 17.3841 32.8188 17.228 33.7582 17.0784C34.8785 16.9008 35.9998 16.7273 37.121 16.5539C37.616 16.478 38.1115 16.4072 38.6065 16.3331Z" fill="#439934"/>
<path fill-rule="evenodd" clip-rule="evenodd" d="M29.1862 40.4114C28.5811 39.8911 27.9548 39.3937 27.375 38.8462C24.254 35.9025 21.9707 32.437 20.8462 28.2591C20.5364 27.1097 20.3301 25.9411 20.2636 24.7533C20.2167 23.9217 20.1497 23.0831 20.2087 22.2558C20.3648 20.0559 20.6831 17.8772 21.3281 15.758L21.3637 15.7087C21.4265 15.7922 21.5165 15.8662 21.5484 15.9605C22.1784 17.8148 22.8032 19.6711 23.4253 21.5287C25.3795 27.3651 27.3314 33.203 29.2889 39.0384C29.3273 39.1523 29.4262 39.2456 29.4975 39.3483L29.1862 40.4114Z" fill="#45A538"/>
<path fill-rule="evenodd" clip-rule="evenodd" d="M38.6067 16.3331C38.1113 16.4067 37.6158 16.478 37.1213 16.5539C36 16.7273 34.8788 16.9008 33.7585 17.0784C32.8196 17.2275 31.8816 17.3836 30.9432 17.5373L30.3694 17.6358L30.3647 17.2617C30.3455 16.9542 30.3136 16.6467 30.3094 16.3392L30.2452 10.4545C30.2302 9.22686 30.2077 7.99921 30.1828 6.77202C30.1702 6.00928 30.1482 5.24672 30.1167 4.48452C30.098 4.0753 30.0319 3.66796 30.0057 3.25874C29.9902 3.02343 30.0108 2.78624 30.016 2.54999C30.3085 3.11671 30.5949 3.68764 30.8953 4.25014C31.3702 5.13936 32.1272 5.79468 32.8092 6.50952C35.5027 9.33655 37.4147 12.6215 38.6067 16.3331Z" fill="#46A037"/>
<path fill-rule="evenodd" clip-rule="evenodd" d="M30.3711 29.9189L30.4555 29.8903C30.6313 29.2884 31.1703 29.378 31.6058 29.303C32.8348 29.0901 34.0672 28.8984 35.2986 28.6987C36.4897 28.5061 37.6803 28.312 38.8723 28.1241C39.0134 28.102 39.1606 28.1203 39.305 28.1198C39.0823 28.9148 38.907 29.7272 38.6244 30.5001C38.3033 31.3767 37.9152 32.2326 37.5031 33.0717C36.8859 34.323 36.1223 35.4965 35.2283 36.5676C34.5411 37.3936 33.7752 38.1581 33.0078 38.9123C32.5831 39.3291 32.0834 39.6689 31.6175 40.0439L31.4966 39.9614L31.062 39.5901L30.6125 38.6039C30.3054 37.4538 30.1377 36.2709 30.1133 35.0808L30.1217 34.8801L30.1831 34.0111C30.2033 33.7144 30.2305 33.4181 30.2431 33.1214C30.2881 32.0545 30.3284 30.9867 30.3711 29.9189Z" fill="#409433"/>
<path fill-rule="evenodd" clip-rule="evenodd" d="M30.3703 29.9189C30.3281 30.9867 30.2878 32.055 30.2423 33.1228C30.2297 33.42 30.203 33.7162 30.1823 34.0125L29.9086 34.1161C29.3002 32.325 28.6912 30.5527 28.0959 28.7761C27.1111 25.8366 26.1384 22.8928 25.155 19.9523C24.3609 17.5792 23.5612 15.208 22.7559 12.8386C22.718 12.728 22.6102 12.6408 22.5352 12.5428L24.2883 9.31921C24.3488 9.42375 24.428 9.52171 24.4659 9.63421C25.2769 12.0342 26.0864 14.4347 26.8889 16.8375C27.9333 19.9641 28.9706 23.092 30.0141 26.2191C30.0558 26.3437 30.1242 26.4591 30.1898 26.5992L30.4298 26.3198L30.3703 29.9189Z" fill="#4FAA41"/>
<path fill-rule="evenodd" clip-rule="evenodd" d="M22.5352 12.5428C22.6106 12.6408 22.7184 12.7279 22.7559 12.8386C23.5612 15.2079 24.3609 17.5792 25.155 19.9523C26.1384 22.8928 27.1111 25.8365 28.0959 28.7761C28.6912 30.5526 29.3002 32.3245 29.9086 34.1161L30.1823 34.0125L30.1209 34.8815L30.0652 35.0817C29.97 36.0328 29.8898 36.9858 29.7736 37.935C29.7155 38.4108 29.5913 38.8776 29.497 39.3483C29.4263 39.2456 29.3269 39.1523 29.2884 39.0384C27.3305 33.2029 25.3791 27.3651 23.4248 21.5287C22.8031 19.6713 22.1775 17.8152 21.548 15.9604C21.5161 15.8662 21.4261 15.7922 21.3633 15.7087L22.5352 12.5428Z" fill="#4AA73C"/>
<path fill-rule="evenodd" clip-rule="evenodd" d="M30.4306 26.3198L30.1906 26.5992C30.125 26.4591 30.0566 26.3438 30.0148 26.2191C28.9714 23.092 27.9341 19.9641 26.8897 16.8375C26.0862 14.435 25.2786 12.0339 24.4667 9.63422C24.4287 9.52172 24.3495 9.42375 24.2891 9.31922L26.457 6.46735C26.5255 6.55828 26.623 6.63938 26.6581 6.74203C27.26 8.50453 27.8562 10.2684 28.4497 12.0338C29.0038 13.6828 29.5494 15.3338 30.11 16.98C30.1475 17.0902 30.2783 17.168 30.3655 17.2617L30.3702 17.6358L30.4306 26.3198Z" fill="#57AE47"/>
<path fill-rule="evenodd" clip-rule="evenodd" d="M30.3655 17.2617C30.2778 17.1684 30.1475 17.0906 30.11 16.98C29.5498 15.3338 29.0037 13.6828 28.4497 12.0338C27.8567 10.2684 27.2595 8.50452 26.6581 6.74204C26.623 6.63938 26.5255 6.55829 26.457 6.46735C27.162 5.77688 27.845 5.06157 28.5786 4.40298C29.2306 3.81798 29.7547 3.19079 29.7791 2.26594L29.8306 2.08173L30.0162 2.54954C30.0116 2.78579 29.9905 3.02298 30.0059 3.25829C30.0327 3.66751 30.0987 4.07485 30.117 4.48407C30.1512 5.24579 30.1677 6.00891 30.1831 6.77157C30.208 7.99876 30.2305 9.22641 30.2455 10.4541L30.3097 16.3388C30.3144 16.6467 30.3467 16.9542 30.3655 17.2617Z" fill="#60B24F"/>
<path fill-rule="evenodd" clip-rule="evenodd" d="M29.4973 39.3478C29.5915 38.8772 29.7157 38.4103 29.7738 37.9345C29.8901 36.9858 29.9702 36.0324 30.0654 35.0813L30.0893 35.0775L30.1127 35.0817C30.1372 36.2719 30.3048 37.4548 30.612 38.6049C30.5487 38.6883 30.4601 38.7619 30.4263 38.8556C30.1662 39.5897 29.9205 40.3299 29.659 41.0635C29.6234 41.1638 29.523 41.242 29.4532 41.3297L29.1855 40.411L29.4973 39.3478Z" fill="#A9AA88"/>
<path fill-rule="evenodd" clip-rule="evenodd" d="M29.4531 41.3301C29.523 41.242 29.6233 41.1642 29.6589 41.0639C29.9205 40.3303 30.1661 39.5901 30.4263 38.8561C30.4595 38.7623 30.5486 38.6887 30.6119 38.6053L31.0614 39.5915C30.9728 39.7172 30.85 39.8311 30.8008 39.9712L29.9402 42.4987C29.9045 42.6004 29.7841 42.6717 29.7025 42.7575L29.4531 41.3301Z" fill="#B6B598"/>
<path fill-rule="evenodd" clip-rule="evenodd" d="M29.7031 42.757C29.7842 42.6712 29.9052 42.6 29.9408 42.4983L30.8014 39.9708C30.8502 39.8306 30.9734 39.7167 31.062 39.5911L31.497 39.9618C31.287 40.1695 31.1703 40.4095 31.2406 40.7128L31.1084 41.1454C31.0484 41.2195 30.9612 41.2842 30.9317 41.369C30.6312 42.2297 30.3448 43.095 30.042 43.9551C30.0036 44.0639 29.8972 44.1497 29.8227 44.2462L29.7031 42.757Z" fill="#C2C1A7"/>
<path fill-rule="evenodd" clip-rule="evenodd" d="M29.8221 44.2458C29.8971 44.1492 30.0035 44.0635 30.0415 43.9547C30.3443 43.0946 30.6311 42.2292 30.9311 41.3686C30.9607 41.2838 31.0479 41.2196 31.1079 41.145L30.9255 43.1306C30.8768 43.1869 30.8065 43.2361 30.783 43.3013L30.1765 45.0394C30.1338 45.158 30.0522 45.2639 29.9885 45.375C29.9318 45.301 29.8305 45.2292 29.8258 45.1524C29.808 44.8514 29.8207 44.5481 29.8221 44.2458Z" fill="#CECDB7"/>
<path fill-rule="evenodd" clip-rule="evenodd" d="M29.9883 45.3755C30.052 45.2644 30.1336 45.1585 30.1762 45.0399L30.7828 43.3017C30.8062 43.2361 30.877 43.1874 30.9253 43.1311L30.93 44.4342L30.4936 45.5531L29.9883 45.3755Z" fill="#DBDAC7"/>
<path fill-rule="evenodd" clip-rule="evenodd" d="M30.4941 45.5531L30.9305 44.4342L31.0205 45.758L30.4941 45.5531Z" fill="#EBE9DC"/>
<path fill-rule="evenodd" clip-rule="evenodd" d="M31.241 40.7128C31.1712 40.41 31.2874 40.17 31.4974 39.9619L31.6184 40.0444L31.241 40.7128Z" fill="#CECDB7"/>
<path fill-rule="evenodd" clip-rule="evenodd" d="M30.1137 35.0822L30.0903 35.078L30.0664 35.0817L30.1222 34.8816L30.1137 35.0822Z" fill="#4FAA41"/>
</svg>
