<svg width="60" height="38" viewBox="0 0 60 38" fill="none" xmlns="http://www.w3.org/2000/svg">
<g clip-path="url(#clip0_469_655)">
<path d="M29.6616 37.3C29.4585 37.3 29.2689 37.2459 29.0928 37.1511L27.2915 36.0812C27.0205 35.9321 27.156 35.878 27.2373 35.8509C27.603 35.729 27.6707 35.7018 28.0499 35.4853C28.0906 35.4581 28.1448 35.4717 28.1854 35.4988L29.5669 36.3249C29.6211 36.352 29.6888 36.352 29.7293 36.3249L35.1334 33.1963C35.1876 33.1692 35.2148 33.1149 35.2148 33.0473V26.8036C35.2148 26.7357 35.1876 26.6817 35.1334 26.6545L29.7293 23.5394C29.6752 23.5122 29.6075 23.5122 29.5669 23.5394L24.1628 26.6545C24.1087 26.6816 24.0815 26.7493 24.0815 26.8034V33.0472C24.0815 33.1015 24.1087 33.1691 24.1628 33.1963L25.6391 34.0495C26.4382 34.4558 26.9393 33.9818 26.9393 33.5077V27.3452C26.9393 27.264 27.0071 27.1827 27.1019 27.1827H27.7926C27.8739 27.1827 27.9551 27.2504 27.9551 27.3452V33.5077C27.9551 34.5777 27.3727 35.2007 26.3569 35.2007C26.0454 35.2007 25.8017 35.2007 25.1109 34.8621L23.6888 34.0495C23.3366 33.8464 23.12 33.4671 23.12 33.0608V26.817C23.12 26.4107 23.3366 26.0314 23.6888 25.8283L29.0928 22.6997C29.4314 22.51 29.892 22.51 30.2305 22.6997L35.6345 25.8283C35.9867 26.0314 36.2035 26.4107 36.2035 26.817V33.0608C36.2035 33.4671 35.9867 33.8464 35.6345 34.0495L30.2305 37.1782C30.0544 37.2595 29.8512 37.3 29.6616 37.3ZM31.3277 33.0066C28.9575 33.0066 28.4699 31.9231 28.4699 31.0022C28.4699 30.9208 28.5377 30.8396 28.6325 30.8396H29.3368C29.418 30.8396 29.4857 30.8938 29.4857 30.9751C29.5941 31.6929 29.9056 32.045 31.3412 32.045C32.4789 32.045 32.9666 31.7877 32.9666 31.1782C32.9666 30.826 32.8311 30.5688 31.0568 30.3927C29.5805 30.2436 28.6595 29.9186 28.6595 28.7403C28.6595 27.6432 29.5806 26.9931 31.1246 26.9931C32.8581 26.9931 33.7115 27.5891 33.8199 28.8891C33.8199 28.9299 33.8063 28.9705 33.7792 29.0111C33.752 29.0382 33.7115 29.0653 33.6708 29.0653H32.9665C32.8988 29.0653 32.8311 29.0111 32.8176 28.9434C32.655 28.1986 32.2352 27.9547 31.1246 27.9547C29.8785 27.9547 29.7295 28.3882 29.7295 28.7131C29.7295 29.1059 29.9056 29.2278 31.585 29.4445C33.2509 29.6613 34.0366 29.9728 34.0366 31.1375C34.023 32.3294 33.0479 33.0066 31.3277 33.0066Z" fill="#539E43"/>
<path d="M12.8942 12.8803C12.8942 12.6365 12.7587 12.4061 12.542 12.2843L6.79938 8.97958C6.70445 8.92532 6.59617 8.89825 6.48789 8.88466H6.43363C6.32535 8.88466 6.21695 8.92532 6.12215 8.97958L0.379492 12.2843C0.162695 12.4061 0.0273438 12.6364 0.0273438 12.8803L0.0409375 21.7651C0.0409375 21.887 0.108672 22.0088 0.216953 22.0631C0.325352 22.1308 0.460703 22.1308 0.555625 22.0631L3.96871 20.1127C4.18539 19.9909 4.32086 19.7606 4.32086 19.5168V15.3588C4.32086 15.115 4.45621 14.8848 4.67301 14.7629L6.12215 13.9231C6.23055 13.8554 6.35242 13.8282 6.4743 13.8282C6.59617 13.8282 6.71805 13.8554 6.81297 13.9231L8.26211 14.7629C8.47891 14.8848 8.61426 15.1149 8.61426 15.3588V19.5168C8.61426 19.7606 8.74973 19.9909 8.96641 20.1127L12.3795 22.0631C12.4322 22.0963 12.4933 22.1139 12.5556 22.1139C12.6179 22.1139 12.6789 22.0963 12.7316 22.0631C12.84 22.0088 12.9078 21.887 12.9078 21.7651L12.8942 12.8803ZM40.4969 0.650007C40.3886 0.59575 40.2531 0.59575 40.1582 0.650007C40.0499 0.717742 39.9822 0.826023 39.9822 0.947898V9.75161C39.9822 9.83282 39.9416 9.91403 39.8603 9.96829C39.7791 10.0088 39.6978 10.0088 39.6166 9.96829L38.1809 9.14212C38.0756 9.08219 37.9566 9.05067 37.8355 9.05067C37.7144 9.05067 37.5953 9.08219 37.4901 9.14212L31.7474 12.4604C31.5307 12.5823 31.3953 12.8125 31.3953 13.0563V19.6793C31.3953 19.923 31.5307 20.1534 31.7474 20.2753L37.4901 23.5936C37.5953 23.6535 37.7144 23.685 37.8355 23.685C37.9566 23.685 38.0756 23.6535 38.1809 23.5936L43.9236 20.2753C44.1402 20.1534 44.2757 19.9231 44.2757 19.6793V3.16919C44.2757 2.91184 44.1402 2.68169 43.9236 2.55969L40.4969 0.650007ZM39.9687 17.4988C39.9687 17.5665 39.9416 17.6206 39.8874 17.6477L37.9236 18.7854C37.8961 18.7987 37.866 18.8057 37.8355 18.8057C37.805 18.8057 37.7749 18.7987 37.7474 18.7854L35.7836 17.6477C35.7293 17.6206 35.7023 17.5529 35.7023 17.4988V15.2233C35.7023 15.1556 35.7293 15.1015 35.7836 15.0744L37.7474 13.9366C37.7749 13.9232 37.805 13.9163 37.8355 13.9163C37.866 13.9163 37.8961 13.9232 37.9236 13.9366L39.8874 15.0744C39.9416 15.1013 39.9687 15.1692 39.9687 15.2233V17.4988ZM59.6075 15.1692C59.8243 15.0473 59.9461 14.817 59.9461 14.5732V12.9615C59.9461 12.7177 59.8107 12.4875 59.6075 12.3656L53.9055 9.06091C53.8002 9.00098 53.6812 8.96946 53.5601 8.96946C53.4389 8.96946 53.3199 9.00098 53.2147 9.06091L47.472 12.3791C47.2552 12.5009 47.1198 12.7312 47.1198 12.975V19.5981C47.1198 19.8418 47.2553 20.0721 47.472 20.194L53.174 23.4445C53.3908 23.5664 53.6481 23.5664 53.8513 23.4445L57.305 21.5215C57.4134 21.4672 57.4811 21.3453 57.4811 21.2234C57.4811 21.1016 57.4134 20.9797 57.305 20.9254L51.5352 17.6072C51.4268 17.5394 51.3591 17.4311 51.3591 17.3093V15.237C51.3591 15.1152 51.4268 14.9933 51.5352 14.939L53.3365 13.9097C53.3893 13.8765 53.4503 13.8589 53.5126 13.8589C53.5749 13.8589 53.6359 13.8765 53.6887 13.9097L55.4901 14.939C55.5985 15.0068 55.6661 15.115 55.6661 15.237V16.8623C55.6661 16.9842 55.7338 17.1061 55.8422 17.1602C55.895 17.1934 55.956 17.211 56.0183 17.211C56.0806 17.211 56.1417 17.1934 56.1944 17.1602L59.6075 15.1692Z" fill="#333333"/>
<path d="M53.472 14.8576C53.4921 14.8443 53.5156 14.8373 53.5397 14.8373C53.5638 14.8373 53.5874 14.8443 53.6075 14.8576L54.7046 15.4941C54.7451 15.5213 54.7722 15.5619 54.7722 15.616V16.8893C54.7722 16.9434 54.7452 16.9841 54.7046 17.0111L53.6075 17.6477C53.5874 17.661 53.5638 17.668 53.5397 17.668C53.5156 17.668 53.4921 17.661 53.472 17.6477L52.375 17.0111C52.3343 16.9841 52.3073 16.9434 52.3073 16.8893V15.6161C52.3073 15.5619 52.3342 15.5212 52.375 15.4943L53.472 14.8576Z" fill="#539E43"/>
<path d="M22.4969 9.08798C22.3917 9.02807 22.2727 8.99657 22.1516 8.99657C22.0305 8.99657 21.9115 9.02807 21.8062 9.08798L16.1042 12.379C15.8874 12.5008 15.7656 12.7311 15.7656 12.9749V19.5709C15.7656 19.8146 15.901 20.0449 16.1042 20.1668L21.8062 23.458C21.9115 23.5179 22.0305 23.5494 22.1516 23.5494C22.2727 23.5494 22.3917 23.5179 22.4969 23.458L28.199 20.1668C28.4157 20.0449 28.5377 19.8146 28.5377 19.5709V12.975C28.5377 12.7312 28.4021 12.5009 28.199 12.3791L22.4969 9.08798Z" fill="url(#paint0_linear_469_655)"/>
<path fill-rule="evenodd" clip-rule="evenodd" d="M28.2261 20.1669C28.3886 20.0721 28.5105 19.9095 28.5647 19.7335L22.2801 9.00663C22.1176 8.97956 21.9414 8.99304 21.7926 9.08784L16.1041 12.3656L22.2394 23.5529C22.3287 23.5383 22.4153 23.5109 22.4968 23.4717L28.2261 20.1669Z" fill="url(#paint1_linear_469_655)"/>
</g>
<defs>
<linearGradient id="paint0_linear_469_655" x1="4085.77" y1="642.22" x2="3020.56" y2="3756.68" gradientUnits="userSpaceOnUse">
<stop stop-color="#41873F"/>
<stop offset="0.3288" stop-color="#418B3D"/>
<stop offset="0.6352" stop-color="#419637"/>
<stop offset="0.9319" stop-color="#3FA92D"/>
<stop offset="1" stop-color="#3FAE2A"/>
</linearGradient>
<linearGradient id="paint1_linear_469_655" x1="-38.5857" y1="736.879" x2="1280.85" y2="736.879" gradientUnits="userSpaceOnUse">
<stop offset="0.09192" stop-color="#6CC04A"/>
<stop offset="0.2864" stop-color="#66B848"/>
<stop offset="0.5968" stop-color="#54A044"/>
<stop offset="0.8624" stop-color="#41873F"/>
</linearGradient>
<clipPath id="clip0_469_655">
<rect width="60" height="36.7969" fill="white" transform="translate(0 0.609375)"/>
</clipPath>
</defs>
</svg>
