<svg width="60" height="60" viewBox="0 0 60 60" fill="none" xmlns="http://www.w3.org/2000/svg">
<g clip-path="url(#clip0_469_652)">
<path d="M45.9375 0H14.0625C6.296 0 0 6.296 0 14.0625V45.9375C0 53.704 6.296 60 14.0625 60H45.9375C53.704 60 60 53.704 60 45.9375V14.0625C60 6.296 53.704 0 45.9375 0Z" fill="#242938"/>
<path d="M29.9995 34.4417C32.4145 34.4417 34.372 32.4839 34.372 30.0692C34.372 27.6544 32.4145 25.6967 29.9995 25.6967C27.5847 25.6967 25.627 27.6544 25.627 30.0692C25.627 32.4839 27.5847 34.4417 29.9995 34.4417Z" fill="#00D8FF"/>
<path d="M30.0005 21.1788C35.8711 21.1788 41.3248 22.0212 45.4369 23.437C50.3913 25.1426 53.4375 27.728 53.4375 30.0691C53.4375 32.5088 50.2092 35.2554 44.8887 37.0181C40.8663 38.3508 35.5732 39.0464 30.0005 39.0464C24.2869 39.0464 18.8763 38.3934 14.8085 37.0034C9.66211 35.2444 6.5625 32.4623 6.5625 30.0691C6.5625 27.747 9.47109 25.1815 14.3559 23.4785C18.4833 22.0395 24.0715 21.1788 29.9995 21.1788H30.0005Z" stroke="#00D8FF"/>
<path d="M22.2606 25.6495C25.1936 20.5641 28.6475 16.2605 31.9283 13.4058C35.8808 9.96586 39.6425 8.61867 41.6704 9.78797C43.7837 11.0067 44.5504 15.1758 43.4195 20.6653C42.5652 24.8154 40.5228 29.748 37.7387 34.5757C34.8843 39.5252 31.6159 43.886 28.3799 46.7145C24.2851 50.2938 20.3263 51.5892 18.2532 50.3937C16.2416 49.2344 15.4724 45.4327 16.4375 40.3502C17.2529 36.0558 19.2993 30.7849 22.2596 25.6495H22.2606Z" stroke="#00D8FF"/>
<path d="M22.2693 34.5886C19.3282 29.5088 17.3257 24.3661 16.4899 20.0981C15.4837 14.9557 16.195 11.0241 18.2212 9.85126C20.3327 8.62876 24.3271 10.0467 28.5182 13.7681C31.687 16.5816 34.9408 20.8137 37.7329 25.6367C40.5956 30.5815 42.7411 35.5913 43.5757 39.8072C44.6318 45.1425 43.777 49.219 41.7058 50.4178C39.6963 51.5813 36.0187 50.3496 32.0974 46.9751C28.7843 44.1242 25.2396 39.7191 22.2693 34.5886Z" stroke="#00D8FF"/>
</g>
<defs>
<clipPath id="clip0_469_652">
<rect width="60" height="60" fill="white"/>
</clipPath>
</defs>
</svg>
