<svg width="60" height="60" viewBox="0 0 60 60" fill="none" xmlns="http://www.w3.org/2000/svg">
<g clip-path="url(#clip0_469_651)">
<path d="M45.9375 0H14.0625C6.296 0 0 6.296 0 14.0625V45.9375C0 53.704 6.296 60 14.0625 60H45.9375C53.704 60 60 53.704 60 45.9375V14.0625C60 6.296 53.704 0 45.9375 0Z" fill="#CD6799"/>
<mask id="mask0_469_651" style="mask-type:luminance" maskUnits="userSpaceOnUse" x="6" y="12" width="48" height="36">
<path d="M6.5625 12.4219H53.4375V47.5568H6.5625V12.4219Z" fill="white"/>
</mask>
<g mask="url(#mask0_469_651)">
<path d="M46.9003 32.6163C45.2658 32.6247 43.8454 33.0185 42.656 33.6002C42.2196 32.7361 41.7832 31.9659 41.7061 31.4011C41.6205 30.7422 41.5179 30.3401 41.6205 29.5528C41.7232 28.7655 42.1854 27.6447 42.1767 27.5592C42.1683 27.4734 42.074 27.0715 41.1328 27.0628C40.1915 27.0544 39.3787 27.2426 39.2845 27.4908C39.1903 27.7387 39.0108 28.3036 38.891 28.8855C38.7283 29.7412 37.0083 32.7961 36.0244 34.3962C35.7077 33.7715 35.434 33.2238 35.374 32.7874C35.2884 32.1286 35.1858 31.7264 35.2884 30.9391C35.3911 30.1519 35.8533 29.0308 35.8446 28.9453C35.8361 28.8597 35.7419 28.4576 34.8007 28.4491C33.8594 28.4404 33.0464 28.6287 32.9524 28.8769C32.8582 29.1251 32.7555 29.707 32.5586 30.2716C32.362 30.8365 30.0773 35.9365 29.4783 37.2541C29.2362 37.7874 28.9823 38.3152 28.7168 38.8371C28.7168 38.8371 28.7081 38.8629 28.6826 38.9055C28.599 39.0692 28.5134 39.2318 28.4257 39.3933V39.4019C28.2975 39.633 28.1604 39.8468 28.0919 39.8468C28.0406 39.8468 27.9466 39.2308 28.109 38.3922C28.4515 36.6208 29.2643 33.8655 29.2558 33.7715C29.2558 33.7202 29.4098 33.2409 28.7252 32.9927C28.0577 32.7445 27.8182 33.1554 27.7582 33.1554C27.6984 33.1554 27.6555 33.3009 27.6555 33.3009C27.6555 33.3009 28.4001 30.2032 26.2352 30.2032C24.8831 30.2032 23.0177 31.6835 22.0938 33.0185C21.0432 33.5902 19.9934 34.1635 18.9445 34.7383C18.4399 35.0208 17.9179 35.3032 17.43 35.5685C17.3958 35.5343 17.3615 35.4914 17.3273 35.4572C14.7089 32.659 9.86576 30.6825 10.0711 26.9259C10.1482 25.5567 10.6188 21.9628 19.3725 17.5987C26.5774 14.0477 32.3107 15.0316 33.3033 17.2137C34.7236 20.3285 30.2313 26.1129 22.7868 26.9515C19.9458 27.2681 18.457 26.1729 18.0806 25.7622C17.6868 25.3343 17.6268 25.3087 17.4813 25.3943C17.2418 25.5225 17.3958 25.9076 17.4813 26.13C17.704 26.7119 18.6194 27.7387 20.1682 28.2436C21.5374 28.6887 24.866 28.9369 28.8963 27.3794C33.4059 25.6338 36.9314 20.7818 35.8959 16.7175C34.8607 12.593 28.0151 11.2324 21.5374 13.5342C17.6866 14.9034 13.511 17.0597 10.5075 19.8663C6.93912 23.2038 6.37451 26.1044 6.6056 27.3194C7.43552 31.6322 13.3826 34.4388 15.7615 36.5182C15.6417 36.5866 15.5304 36.6466 15.4364 36.6979C14.2469 37.2883 9.71177 39.6586 8.58208 42.1659C7.29865 45.0068 8.78763 47.0433 9.77154 47.317C12.8264 48.1643 15.9668 46.6411 17.6526 44.1253C19.3383 41.6095 19.1329 38.3409 18.3541 36.8435C18.3458 36.8245 18.3342 36.8072 18.3199 36.7922C18.6281 36.6124 18.9445 36.4242 19.2527 36.2444C19.819 35.9098 20.3924 35.5874 20.9726 35.2774C20.6817 36.0733 20.4677 37.023 20.3651 38.3922C20.2368 40.001 20.8957 42.0888 21.7598 42.9103C22.1449 43.2696 22.5984 43.2783 22.8895 43.2783C23.8992 43.2783 24.3527 42.4397 24.8576 41.4471C25.4735 40.2319 26.0299 38.82 26.0299 38.82C26.0299 38.82 25.3366 42.6365 27.2191 42.6365C27.9037 42.6365 28.5968 41.7466 28.905 41.2931V41.3015C28.905 41.3015 28.9221 41.276 28.9563 41.216C29.0247 41.1047 29.0674 41.0362 29.0674 41.0362V41.0191C29.3414 40.5401 29.9573 39.4533 30.873 37.6476C32.0538 35.3203 33.1919 32.411 33.1919 32.411C33.1919 32.411 33.2946 33.1212 33.6454 34.3019C33.8508 34.9952 34.2787 35.7567 34.6209 36.4926C34.3472 36.8777 34.1761 37.0915 34.1761 37.0915L34.1845 37.1001C33.9621 37.391 33.7226 37.7076 33.4572 38.0156C32.5244 39.1282 31.4121 40.4032 31.2581 40.7712C31.0783 41.2076 31.1212 41.524 31.4634 41.7808C31.7116 41.969 32.1565 41.9946 32.61 41.969C33.4486 41.909 34.0392 41.7037 34.3301 41.5753C34.7836 41.4129 35.3142 41.1647 35.8104 40.7967C36.7261 40.1208 37.2822 39.1537 37.2309 37.8787C37.2051 37.177 36.974 36.4755 36.6918 35.8165C36.7774 35.6967 36.8543 35.5769 36.9398 35.4572C38.3861 33.3436 39.5069 31.0247 39.5069 31.0247C39.5069 31.0247 39.6096 31.7348 39.9604 32.9158C40.1315 33.5147 40.4824 34.1651 40.7906 34.7983C39.4301 35.9022 38.5915 37.1857 38.2919 38.0243C37.7529 39.5817 38.1722 40.2832 38.9679 40.4458C39.3274 40.5229 39.8407 40.3519 40.2173 40.1892C40.6964 40.0352 41.2612 39.7699 41.8003 39.3762C42.7158 38.7002 43.5972 37.759 43.5459 36.484C43.5201 35.9022 43.3661 35.3287 43.1522 34.7726C44.3074 34.2935 45.7964 34.0282 47.696 34.2506C51.7692 34.7299 52.5736 37.2712 52.4194 38.3409C52.2654 39.4104 51.4097 39.9923 51.1272 40.1721C50.8451 40.3519 50.7508 40.4116 50.7766 40.5401C50.8108 40.7283 50.9477 40.7196 51.1872 40.6854C51.521 40.6256 53.3264 39.8212 53.4035 37.8532C53.5319 35.3374 51.1359 32.5905 46.9003 32.6163ZM15.479 43.2098C14.1272 44.6815 12.2447 45.2379 11.4316 44.7672C10.5588 44.2622 10.901 42.0888 12.5613 40.5314C13.5708 39.5817 14.8715 38.7002 15.7357 38.1612C15.9326 38.0414 16.2234 37.8703 16.5743 37.6563C16.6343 37.6221 16.6685 37.605 16.6685 37.605L16.8738 37.4765C17.4813 39.7015 16.8993 41.6611 15.479 43.2098ZM25.3197 36.5182C24.8491 37.665 23.8652 40.5998 23.2661 40.4374C22.7529 40.3003 22.4362 38.0756 23.1635 35.8765C23.5315 34.7726 24.3101 33.4549 24.7636 32.9414C25.4995 32.1199 26.3123 31.8462 26.5092 32.1799C26.7574 32.6163 25.6108 35.7994 25.3197 36.5182ZM33.4404 40.4032C33.2435 40.5058 33.0553 40.5743 32.9697 40.5229C32.9097 40.4887 33.0553 40.3519 33.0553 40.3519C33.0553 40.3519 34.0736 39.2564 34.4758 38.7602C34.7067 38.4691 34.9807 38.1269 35.2715 37.7419V37.8532C35.2715 39.1624 34.0052 40.0437 33.4404 40.4032ZM39.704 38.974C39.5585 38.8713 39.5843 38.5291 40.072 37.4594C40.2602 37.0401 40.7053 36.3387 41.4668 35.6625C41.5523 35.9365 41.6123 36.2015 41.6036 36.4497C41.5952 38.1014 40.4142 38.7173 39.704 38.974Z" fill="white"/>
</g>
</g>
<defs>
<clipPath id="clip0_469_651">
<rect width="60" height="60" fill="white"/>
</clipPath>
</defs>
</svg>
