<svg width="16" height="16" viewBox="0 0 16 16" fill="none" xmlns="http://www.w3.org/2000/svg">
<path d="M1.92114 9.7973L0.751883 9.53936C0.409192 10.2307 0.0839844 11.0074 0.0839844 11.9022C0.0839844 12.7798 0.396026 13.547 0.751883 14.265L4.7075 13.3924V15.1132L6.08537 14.4243L7.46324 15.1132V13.3933L11.388 14.2654C11.728 13.5794 12.0561 12.8007 12.0561 11.9022C12.0561 11.7473 12.0447 11.5931 12.0254 11.4429H15.7611V0.419922H1.92114V9.7973ZM1.27599 13.2087C1.15652 12.8927 1.00256 12.3908 1.00256 11.9022C1.00256 11.4134 1.15655 10.9114 1.27599 10.5956L4.7075 11.3526V12.4517L1.27599 13.2087ZM6.54466 13.6269L6.08537 13.3973L5.62608 13.6269V11.4428H6.54466V13.6269ZM10.8643 13.2081L7.46324 12.4523V11.352L10.8643 10.5962C10.9838 10.9122 11.1376 11.4138 11.1376 11.9021C11.1376 12.3906 10.9838 12.8923 10.8643 13.2081ZM14.8425 1.3385V10.5243H11.8128C11.6622 10.0637 11.5409 9.8462 11.388 9.53887L6.95355 10.5243H5.21688L2.83972 9.9999V1.3385H14.8425Z" fill="white"/>
<path d="M5.62598 2.25684H12.056V3.17542H5.62598V2.25684Z" fill="white"/>
<path d="M3.7583 5.93164H13.9239V6.85022H3.7583V5.93164Z" fill="white"/>
<path d="M5.62598 7.76855H12.056V8.68713H5.62598V7.76855Z" fill="white"/>
<path d="M6.54443 4.09375H7.46301V5.01233H6.54443V4.09375Z" fill="white"/>
<path d="M8.38184 4.09375H9.30042V5.01233H8.38184V4.09375Z" fill="white"/>
<path d="M10.2188 4.09375H11.1373V5.01233H10.2188V4.09375Z" fill="white"/>
</svg>
