<svg width="14" height="15" viewBox="0 0 14 15" fill="none" xmlns="http://www.w3.org/2000/svg">
<path d="M11.3307 11.7997L10.9231 12.0716L11.8828 13.5112H1.04042L2.18362 11.7965H8.40718V11.3066H2.05257C2.01225 11.3066 1.97256 11.3166 1.93701 11.3356C1.90145 11.3546 1.87115 11.3821 1.84877 11.4156L0.379043 13.6202C0.352279 13.6605 0.337967 13.7078 0.337891 13.7562V14.491C0.337891 14.621 0.389506 14.7456 0.481382 14.8375C0.573257 14.9293 0.697868 14.981 0.827799 14.981H12.0957C12.2256 14.981 12.3502 14.9293 12.4421 14.8375C12.534 14.7456 12.5856 14.621 12.5856 14.491V13.7562C12.5855 13.7078 12.5712 13.6605 12.5445 13.6202L11.3307 11.7997ZM0.827799 14.491V14.0011H12.0957V14.491H0.827799Z" fill="white"/>
<path d="M11.3607 0.283203H1.5625C1.36778 0.283785 1.1812 0.361394 1.04352 0.499082C0.905828 0.63677 0.828218 0.823347 0.827637 1.01807V7.38688C0.828218 7.5816 0.905828 7.76818 1.04352 7.90587C1.1812 8.04355 1.36778 8.12116 1.5625 8.12174H4.99186V9.10156H4.01204C3.94708 9.10156 3.88477 9.12737 3.83884 9.17331C3.7929 9.21925 3.76709 9.28155 3.76709 9.34652V10.3263C3.76709 10.3913 3.7929 10.4536 3.83884 10.4995C3.88477 10.5455 3.94708 10.5713 4.01204 10.5713H8.91113C8.9761 10.5713 9.0384 10.5455 9.08434 10.4995C9.13028 10.4536 9.15609 10.3913 9.15609 10.3263V9.34652C9.15609 9.28155 9.13028 9.21925 9.08434 9.17331C9.0384 9.12737 8.9761 9.10156 8.91113 9.10156H7.93131V8.12174H11.3607C11.5554 8.12116 11.742 8.04355 11.8797 7.90587C12.0173 7.76818 12.095 7.5816 12.0955 7.38688V1.01807C12.095 0.823347 12.0173 0.63677 11.8797 0.499082C11.742 0.361394 11.5554 0.283785 11.3607 0.283203ZM8.66618 9.59147V10.0814H4.257V9.59147H8.66618ZM5.48177 9.10156V8.12174H7.44141V9.10156H5.48177ZM11.6056 7.38688C11.6056 7.45185 11.5798 7.51415 11.5339 7.56009C11.4879 7.60603 11.4256 7.63184 11.3607 7.63184H1.5625C1.49753 7.63184 1.43523 7.60603 1.38929 7.56009C1.34335 7.51415 1.31755 7.45185 1.31755 7.38688V6.65202H11.6056V7.38688ZM11.6056 6.16211H1.31755V1.01807C1.31755 0.9531 1.34335 0.890795 1.38929 0.844858C1.43523 0.79892 1.49753 0.773112 1.5625 0.773112H11.3607C11.4256 0.773112 11.4879 0.79892 11.5339 0.844858C11.5798 0.890795 11.6056 0.9531 11.6056 1.01807V6.16211Z" fill="white"/>
<path d="M10.1362 6.89648H10.6261V7.38639H10.1362V6.89648Z" fill="white"/>
<path d="M4.25716 5.67188H5.23698C5.30195 5.67188 5.36425 5.64607 5.41019 5.60013C5.45613 5.55419 5.48193 5.49189 5.48193 5.42692V5.18197H7.44157V5.42692C7.44157 5.49189 7.46738 5.55419 7.51331 5.60013C7.55925 5.64607 7.62156 5.67188 7.68652 5.67188H8.66634C8.73131 5.67188 8.79361 5.64607 8.83955 5.60013C8.88549 5.55419 8.9113 5.49189 8.9113 5.42692V4.4471C8.9113 4.38214 8.88549 4.31983 8.83955 4.27389C8.79361 4.22796 8.73131 4.20215 8.66634 4.20215H8.42139V2.73242H8.66634C8.73131 2.73242 8.79361 2.70661 8.83955 2.66068C8.88549 2.61474 8.9113 2.55243 8.9113 2.48747V1.50765C8.9113 1.44268 8.88549 1.38038 8.83955 1.33444C8.79361 1.2885 8.73131 1.2627 8.66634 1.2627H7.68652C7.62156 1.2627 7.55925 1.2885 7.51331 1.33444C7.46738 1.38038 7.44157 1.44268 7.44157 1.50765V1.7526H5.48193V1.50765C5.48193 1.44268 5.45613 1.38038 5.41019 1.33444C5.36425 1.2885 5.30195 1.2627 5.23698 1.2627H4.25716C4.1922 1.2627 4.12989 1.2885 4.08395 1.33444C4.03801 1.38038 4.01221 1.44268 4.01221 1.50765V2.48747C4.01221 2.55243 4.03801 2.61474 4.08395 2.66068C4.12989 2.70661 4.1922 2.73242 4.25716 2.73242H4.50212V4.20215H4.25716C4.1922 4.20215 4.12989 4.22796 4.08395 4.27389C4.03801 4.31983 4.01221 4.38214 4.01221 4.4471V5.42692C4.01221 5.49189 4.03801 5.55419 4.08395 5.60013C4.12989 5.64607 4.1922 5.67188 4.25716 5.67188ZM8.42139 5.18197H7.93148V4.69206H8.42139V5.18197ZM7.93148 1.7526H8.42139V2.24251H7.93148V1.7526ZM4.50212 1.7526H4.99202V2.24251H4.50212V1.7526ZM4.99202 2.73242H5.23698C5.30195 2.73242 5.36425 2.70661 5.41019 2.66068C5.45613 2.61474 5.48193 2.55243 5.48193 2.48747V2.24251H7.44157V2.48747C7.44157 2.55243 7.46738 2.61474 7.51331 2.66068C7.55925 2.70661 7.62156 2.73242 7.68652 2.73242H7.93148V4.20215H7.68652C7.62156 4.20215 7.55925 4.22796 7.51331 4.27389C7.46738 4.31983 7.44157 4.38214 7.44157 4.4471V4.69206H5.48193V4.4471C5.48193 4.38214 5.45613 4.31983 5.41019 4.27389C5.36425 4.22796 5.30195 4.20215 5.23698 4.20215H4.99202V2.73242ZM4.50212 4.69206H4.99202V5.18197H4.50212V4.69206Z" fill="white"/>
<path d="M4.25732 12.5312H7.68669V13.0212H4.25732V12.5312Z" fill="white"/>
<path d="M13.2886 8.817L12.5954 8.12378C12.5725 8.10097 12.5454 8.08294 12.5156 8.07074C12.4857 8.05854 12.4537 8.05242 12.4214 8.05275C12.3895 8.05243 12.3579 8.05856 12.3285 8.07077C12.299 8.08298 12.2723 8.10101 12.25 8.12378L8.95778 11.416C8.93094 11.4427 8.91079 11.4755 8.89899 11.5115L8.72507 12.0308C8.71108 12.0738 8.70917 12.1199 8.71953 12.164C8.7299 12.208 8.75215 12.2484 8.78386 12.2807L8.43848 12.6285L8.78386 12.9739L9.1317 12.6285C9.15417 12.6511 9.18089 12.669 9.21032 12.6812C9.23975 12.6934 9.27131 12.6996 9.30317 12.6995C9.32975 12.6992 9.35615 12.6951 9.38155 12.6873L9.90086 12.5134C9.93688 12.5016 9.96962 12.4814 9.99639 12.4546L13.2886 9.16239C13.3342 9.11649 13.3598 9.05441 13.3598 8.9897C13.3598 8.92498 13.3342 8.8629 13.2886 8.817ZM9.69264 12.0675L9.37175 12.1729L9.23703 12.0406L9.34481 11.7197L11.7282 9.33631L12.0761 9.68169L9.69264 12.0675ZM12.4214 9.33631L12.0761 8.99092L12.4214 8.64309L12.7693 8.99092L12.4214 9.33631Z" fill="white"/>
</svg>
