<svg width="16" height="16" viewBox="0 0 16 16" fill="none" xmlns="http://www.w3.org/2000/svg">
<g clip-path="url(#clip0_90_153)">
<path d="M14.2402 2.40625H7.18555V2.92882H14.2402V2.40625Z" fill="white"/>
<path d="M11.6279 3.45117H7.18604V3.97374H11.6279V3.45117Z" fill="white"/>
<path d="M11.6274 4.49512H7.18555V5.01769H11.6274V4.49512Z" fill="white"/>
<path d="M14.2408 1.36035H9.27637V1.88292H14.2408V1.36035Z" fill="white"/>
<path d="M8.75353 1.36035H8.23096V1.88292H8.75353V1.36035Z" fill="white"/>
<path d="M8.23106 10.5059H7.7085V11.0284H8.23106V10.5059Z" fill="white"/>
<path d="M4.49636 1.80696L4.1269 1.4375L3.60433 1.96007C3.50233 2.0621 3.50233 2.22749 3.60433 2.32953L4.1269 2.85209L4.49636 2.48264L4.15852 2.1448L4.49636 1.80696Z" fill="white"/>
<path d="M6.58685 1.96007L6.06428 1.4375L5.69482 1.80696L6.03267 2.1448L5.69482 2.48264L6.06428 2.85209L6.58685 2.32953C6.68885 2.22749 6.68885 2.0621 6.58685 1.96007Z" fill="white"/>
<path d="M5.10948 1.27802L4.58643 2.8457L5.08189 3.01101L5.60494 1.44333L5.10948 1.27802Z" fill="white"/>
<path d="M13.7184 8.15386V6.06359H13.1958V8.15386H12.6732V5.54102H12.1507V8.15386H11.6281V6.84744H11.1055V8.15386H10.583V6.58615H10.0604V8.15386H9.53781V7.10872H9.01525V8.15386H8.49268V8.67643H14.2409V8.15386H13.7184Z" fill="white"/>
<path d="M13.9789 0.0546875H1.9598C1.09433 0.0555367 0.392939 0.756923 0.39209 1.6224V6.75037V6.75272V9.72222V10.5061C0.392939 11.3715 1.09433 12.0729 1.9598 12.0738H5.19503L4.14989 14.1641H2.74365C2.31074 14.1641 1.9598 14.515 1.9598 14.9479C1.9598 15.3808 2.31074 15.7318 2.74365 15.7318H13.195C13.628 15.7318 13.9789 15.3808 13.9789 14.9479C13.9789 14.515 13.628 14.1641 13.195 14.1641H11.7888L10.7437 12.0738H13.9789C14.8444 12.0729 15.5458 11.3715 15.5466 10.5061V1.6224C15.5458 0.756923 14.8444 0.0555367 13.9789 0.0546875ZM0.914659 3.73096L1.50856 4.438C1.5582 4.49715 1.63149 4.53128 1.7087 4.53128H2.5085C2.58571 4.53128 2.659 4.49715 2.70864 4.438L3.3028 3.73096L3.88912 3.92144L3.95392 4.84195C3.95928 4.91893 3.99841 4.9896 4.06079 5.03504L4.70799 5.50535C4.7706 5.55055 4.8499 5.56593 4.92486 5.54741L5.82185 5.32454L6.18451 5.82333L5.69565 6.60719C5.65515 6.6729 5.64577 6.75315 5.67004 6.8264L5.91748 7.587C5.94129 7.66036 5.99625 7.71947 6.06772 7.74848L6.92421 8.09572V8.71236L6.06719 9.0596C5.99557 9.08848 5.9405 9.14775 5.91695 9.22134L5.83857 9.46094H4.33331C4.91885 8.23499 4.39967 6.76647 3.17373 6.18093C2.45366 5.83702 1.61147 5.86373 0.914659 6.25262V3.73096ZM0.914659 6.87422C1.75978 6.2149 2.9794 6.36553 3.63868 7.21069C4.14773 7.86318 4.18702 8.7667 3.73653 9.46094H0.914659V6.87422ZM13.195 14.6866C13.3393 14.6866 13.4563 14.8036 13.4563 14.9479C13.4563 15.0922 13.3393 15.2092 13.195 15.2092H2.74365C2.59936 15.2092 2.48237 15.0922 2.48237 14.9479C2.48237 14.8036 2.59936 14.6866 2.74365 14.6866H13.195ZM11.2046 14.1641H4.73412L5.77926 12.0738H10.1594L11.2046 14.1641ZM15.024 10.5061C15.024 11.0833 14.5561 11.5512 13.9789 11.5512H1.9598C1.38259 11.5512 0.914659 11.0833 0.914659 10.5061V9.98351H3.87292H3.87528H15.024V10.5061ZM15.024 9.46094H6.46827L7.28374 9.13041C7.38224 9.09044 7.44671 8.99477 7.44678 8.88846V7.91936C7.44681 7.81295 7.38234 7.71716 7.28374 7.67715L6.37551 7.30978L6.20358 6.78068L6.72145 5.94979C6.77763 5.85952 6.77348 5.74423 6.711 5.6582L6.1414 4.87434C6.07885 4.78822 5.97036 4.74863 5.86705 4.77427L4.91702 5.00943L4.46813 4.68335L4.39941 3.70875C4.39193 3.60251 4.3207 3.51142 4.21939 3.47856L3.29836 3.17913C3.19701 3.14686 3.08623 3.17871 3.01748 3.25987L2.38857 4.00845H1.83125L1.20207 3.25987C1.13329 3.17861 1.02234 3.14673 0.92093 3.17913L0.914659 3.18148V1.6224C0.914659 1.04519 1.38259 0.577257 1.9598 0.577257H13.9789C14.5561 0.577257 15.024 1.04519 15.024 1.6224V9.46094Z" fill="white"/>
</g>
<defs>
<clipPath id="clip0_90_153">
<rect width="15.6771" height="15.6771" fill="white" transform="translate(0.131348 0.0537109)"/>
</clipPath>
</defs>
</svg>
