<svg width="14" height="16" viewBox="0 0 14 16" fill="none" xmlns="http://www.w3.org/2000/svg">
<path d="M11.4482 10.2958L10.5281 10.0257L8.52637 8.71822V8.41864C9.10593 7.98148 9.50392 7.31328 9.5779 6.54734C9.86857 6.50055 10.0913 6.24797 10.0913 5.94435V5.12054C10.0913 5.11735 10.0909 5.11423 10.0908 5.11105V4.06748C10.2066 3.98456 10.2801 3.8495 10.2801 3.698V2.74298L11.6615 2.50767C11.8886 2.469 12.0518 2.28868 12.0679 2.05895C12.0838 1.82921 11.9472 1.62798 11.7277 1.5582L7.07063 0.0768974C6.97345 0.0459719 6.87081 0.0460025 6.77369 0.0768668L2.11652 1.5582C1.89707 1.62798 1.76039 1.82921 1.7764 2.05892C1.78657 2.20488 1.85632 2.33072 1.96398 2.41315V3.66202H1.95259C1.69033 3.66202 1.47698 3.87537 1.47698 4.13763V4.75755L1.16996 6.55956C1.11689 6.87123 1.35695 7.15651 1.67386 7.15651H2.71335C3.02956 7.15651 3.27044 6.8719 3.21725 6.55952L2.91024 4.75755V4.13763C2.91024 3.87537 2.69688 3.66202 2.43463 3.66202H2.42327V2.54861L3.56518 2.7431V3.698C3.56518 3.84886 3.63833 3.98371 3.75358 4.06675L3.75401 5.12063V5.94435C3.75401 6.248 3.97671 6.50055 4.26737 6.54734C4.34132 7.31285 4.73888 7.98075 5.31789 8.41793V8.71892L3.31655 10.0261L2.39721 10.296C1.41344 10.5847 0.718811 11.4879 0.718811 12.5378V13.2222C0.718811 13.349 0.8216 13.4518 0.948456 13.4518C1.07531 13.4518 1.1781 13.349 1.1781 13.2222V12.5378C1.1781 11.7103 1.73259 10.9697 2.52658 10.7367L3.38318 10.4852L6.80538 12.5187C6.87485 12.56 6.96677 12.5622 7.03998 12.5187L10.4624 10.4851L11.3189 10.7365C12.1128 10.9696 12.6673 11.7102 12.6673 12.5376V14.7556C12.6673 15.0401 12.4358 15.2716 12.1513 15.2716H11.1391V14.2817C11.1391 14.1549 11.0364 14.0521 10.9095 14.0521C10.7827 14.0521 10.6799 14.1549 10.6799 14.2817V15.2716H3.16441V14.2817C3.16441 14.1549 3.06162 14.0521 2.93476 14.0521C2.80791 14.0521 2.70512 14.1549 2.70512 14.2817V15.2716H1.69397C1.40949 15.2716 1.17804 15.0401 1.17804 14.7556V14.2957C1.17804 14.1688 1.07525 14.066 0.948395 14.066C0.821539 14.066 0.71875 14.1688 0.71875 14.2957V14.7556C0.71875 15.2933 1.15621 15.7308 1.69394 15.7308H12.1513C12.689 15.7308 13.1265 15.2933 13.1265 14.7556V12.5376C13.1265 11.5125 12.4555 10.5916 11.4482 10.2958ZM2.71332 6.69722H1.67386C1.64174 6.69722 1.61724 6.66853 1.62269 6.63665L1.90041 5.00661H2.48677L2.76449 6.63662C2.76991 6.66844 2.7456 6.69722 2.71332 6.69722ZM2.45095 4.13763V4.54735H1.9362V4.13763C1.9362 4.1286 1.94352 4.12128 1.95256 4.12128H2.43456C2.44363 4.12125 2.45095 4.1286 2.45095 4.13763ZM6.10132 11.48L6.19272 11.6204L3.84823 10.2273L5.33636 9.25534C5.40384 10.0472 5.66484 10.8091 6.10132 11.48ZM6.09973 10.4887C6.64025 10.5654 7.20469 10.5655 7.74551 10.4887C7.64101 10.7458 7.51223 10.9939 7.35898 11.2295L6.92262 11.9002L6.48626 11.2295C6.33301 10.9939 6.20423 10.7458 6.09973 10.4887ZM7.74392 11.48C8.1804 10.8091 8.4414 10.0472 8.50885 9.25534L9.99698 10.2273L7.65252 11.6204L7.74392 11.48ZM9.08722 4.153H9.63151V4.89086H9.36136C9.21019 4.89086 9.08719 4.7679 9.08719 4.61673V4.153H9.08722ZM2.25572 1.99587L6.91294 0.514508C6.91892 0.51261 6.92535 0.512579 6.93141 0.514539L11.5886 1.99587C11.5982 1.99893 11.6114 2.0031 11.6097 2.02701C11.608 2.05089 11.5944 2.05319 11.5844 2.0549L10.0447 2.31716L9.46657 2.24566C9.34078 2.23008 9.22608 2.31955 9.21049 2.44539C9.19494 2.57127 9.28438 2.68591 9.41023 2.70146L9.82083 2.75226V3.69374L4.02444 3.69353V2.75223L6.40071 2.45819C6.74683 2.41542 7.09773 2.41542 7.44361 2.45819L8.34299 2.56943C8.46883 2.58502 8.5835 2.49558 8.59909 2.36973C8.61467 2.24386 8.52524 2.12922 8.39939 2.11363L7.50001 2.00239C7.11675 1.95496 6.72788 1.95496 6.34434 2.00239L3.80006 2.31722L2.25982 2.0549C2.24984 2.05319 2.23621 2.05089 2.23453 2.02701C2.23287 2.0031 2.24607 1.9989 2.25572 1.99587ZM4.21315 4.89086L4.21284 4.153H4.75802V4.61676C4.75802 4.7679 4.63505 4.89089 4.48385 4.89089H4.21315V4.89086ZM4.71858 6.4293C4.70676 6.24231 4.55134 6.09583 4.36477 6.09583C4.28121 6.09583 4.21324 6.02785 4.21324 5.94432V5.35015H4.48385C4.88824 5.35015 5.21728 5.02115 5.21728 4.61676V4.153H8.62793V4.61676C8.62793 5.02115 8.95697 5.35015 9.36136 5.35015H9.63197V5.94432C9.63197 6.02785 9.564 6.09583 9.48044 6.09583C9.29387 6.09583 9.13845 6.24231 9.12663 6.42933C9.05348 7.58885 8.08536 8.49718 6.92259 8.49718C5.75982 8.49718 4.79173 7.58885 4.71858 6.4293ZM6.92262 8.95643C7.33105 8.95643 7.71924 8.86305 8.06711 8.697V8.84253C8.06711 9.23516 8.01414 9.62247 7.91214 9.99602C7.28806 10.115 6.5825 10.1198 5.9331 9.99602C5.8311 9.6225 5.77813 9.23519 5.77813 8.84253C5.77813 8.83766 5.77746 8.83292 5.77715 8.82811C5.77709 8.82716 5.77718 8.82621 5.77712 8.82526V8.69654C6.12523 8.86286 6.51379 8.95643 6.92262 8.95643Z" fill="white"/>
</svg>
